<svg width="330" height="249" viewBox="0 0 330 249" fill="none" xmlns="http://www.w3.org/2000/svg">
<path d="M55.3602 40.7761C38.5626 85.9913 27.1369 67.4611 28.152 62.668C37.7952 17.1332 74.1592 12.7742 77.7576 16.6507C84.1346 23.5209 60.0265 28.2162 55.3602 40.7761Z" fill="#F8FCFF"/>
<path d="M310.701 144.759C315.706 103.084 328.849 116.031 328.973 120.712C330.059 161.129 300.526 172.359 296.712 169.862C289.949 165.435 309.31 156.335 310.701 144.759Z" fill="#F8FCFF"/>
<path d="M208.979 230.338C230.321 213.104 230.386 225.428 228.262 227.734C210.255 247.282 191.738 238.479 191.153 235.483C190.116 230.172 203.05 235.125 208.979 230.338Z" fill="#F8FCFF"/>
<path d="M157.869 224.516C53.047 224.516 11.5864 135.953 23.7966 111.718C30.0128 99.3798 50.3074 104.295 50.3074 89.1193C50.3074 62.2074 64.6089 34.3935 76.0455 30.5133C122.803 14.65 188.573 70.6964 219.32 67.0868C242.325 64.3861 317.632 51.8038 308.116 123.489C302.853 163.147 278.612 152.303 271.225 166.672C251.064 205.89 236.48 228.384 157.869 224.516Z" fill="#F3F4F8"/>
<path d="M157.869 224.516C53.047 224.516 11.5864 135.953 23.7966 111.718C30.0128 99.3798 50.3074 104.295 50.3074 89.1193C50.3074 62.2074 64.6089 34.3935 76.0455 30.5133C122.803 14.65 188.573 70.6964 219.32 67.0868C242.325 64.3861 317.632 51.8038 308.116 123.489C302.853 163.147 278.612 152.303 271.225 166.672C251.064 205.89 236.48 228.384 157.869 224.516Z" fill="url(#paint0_linear_0_1294)"/>
<path d="M132.517 35.9863C137.499 35.9863 141.538 31.8375 141.538 26.7196C141.538 21.6017 137.499 17.4529 132.517 17.4529C127.535 17.4529 123.496 21.6017 123.496 26.7196C123.496 31.8375 127.535 35.9863 132.517 35.9863Z" fill="#F8FCFF"/>
<path d="M122.252 20.009C124.313 20.009 125.984 18.2922 125.984 16.1745C125.984 14.0567 124.313 12.34 122.252 12.34C120.19 12.34 118.519 14.0567 118.519 16.1745C118.519 18.2922 120.19 20.009 122.252 20.009Z" fill="#F8FCFF"/>
<path d="M20.3752 119.067C31.6281 119.067 40.7504 116.421 40.7504 113.156C40.7504 109.891 31.6281 107.244 20.3752 107.244C9.12229 107.244 0 109.891 0 113.156C0 116.421 9.12229 119.067 20.3752 119.067Z" fill="#E9E9E9"/>
<path d="M297.696 166.2V166.2C297.696 166.207 297.696 166.285 297.577 166.454C297.447 166.638 297.204 166.886 296.787 167.172C295.947 167.748 294.628 168.329 292.861 168.842C289.346 169.862 284.4 170.514 278.876 170.514C273.35 170.514 268.405 169.862 264.891 168.842C263.123 168.329 261.805 167.748 260.965 167.172C260.548 166.886 260.304 166.638 260.174 166.454C260.055 166.285 260.056 166.207 260.056 166.2V166.2V166.199C260.056 166.193 260.055 166.115 260.174 165.946C260.304 165.761 260.548 165.513 260.965 165.227C261.805 164.651 263.123 164.07 264.891 163.557C268.405 162.537 273.35 161.886 278.876 161.886C284.4 161.886 289.346 162.537 292.861 163.557C294.628 164.07 295.947 164.651 296.787 165.227C297.204 165.513 297.447 165.761 297.577 165.946C297.696 166.115 297.696 166.193 297.696 166.199V166.2Z" stroke="#D2D2D2" stroke-width="3.20157"/>
<path d="M297.696 166.2V166.2C297.696 166.207 297.696 166.285 297.577 166.454C297.447 166.638 297.204 166.886 296.787 167.172C295.947 167.748 294.628 168.329 292.861 168.842C289.346 169.862 284.4 170.514 278.876 170.514C273.35 170.514 268.405 169.862 264.891 168.842C263.123 168.329 261.805 167.748 260.965 167.172C260.548 166.886 260.304 166.638 260.174 166.454C260.055 166.285 260.056 166.207 260.056 166.2V166.2V166.199C260.056 166.193 260.055 166.115 260.174 165.946C260.304 165.761 260.548 165.513 260.965 165.227C261.805 164.651 263.123 164.07 264.891 163.557C268.405 162.537 273.35 161.886 278.876 161.886C284.4 161.886 289.346 162.537 292.861 163.557C294.628 164.07 295.947 164.651 296.787 165.227C297.204 165.513 297.447 165.761 297.577 165.946C297.696 166.115 297.696 166.193 297.696 166.199V166.2Z" stroke="url(#paint1_linear_0_1294)" stroke-width="3.20157"/>
<path d="M68.6045 193.3C68.6045 192.053 69.9322 191.287 70.969 191.935L84.947 200.679C85.9626 201.314 85.9368 202.837 84.9 203.436L70.9242 211.504C69.8874 212.103 68.607 211.333 68.6067 210.111L68.6045 193.3Z" fill="#E9E9E9"/>
<path d="M29.5518 92.8647C34.534 92.8647 38.5729 88.7159 38.5729 83.598C38.5729 78.4801 34.534 74.3313 29.5518 74.3313C24.5696 74.3313 20.5308 78.4801 20.5308 83.598C20.5308 88.7159 24.5696 92.8647 29.5518 92.8647Z" fill="#F8FCFF"/>
<path d="M237.541 225.082C239.86 225.082 241.741 223.15 241.741 220.768C241.741 218.386 239.86 216.454 237.541 216.454C235.222 216.454 233.342 218.386 233.342 220.768C233.342 223.15 235.222 225.082 237.541 225.082Z" fill="#F8FCFF"/>
<path d="M187.888 238.982C187.888 244.1 183.849 248.249 178.866 248.249C173.884 248.249 169.845 244.1 169.845 238.982C169.845 233.864 173.884 229.715 178.866 229.715C183.849 229.715 187.888 233.864 187.888 238.982Z" fill="#F8FCFF"/>
<path d="M286.809 180.1C290.073 180.1 292.72 177.381 292.72 174.028C292.72 170.675 290.073 167.957 286.809 167.957C283.545 167.957 280.899 170.675 280.899 174.028C280.899 177.381 283.545 180.1 286.809 180.1Z" fill="#F8FCFF"/>
<path d="M321.026 110.44C325.321 110.44 328.803 106.863 328.803 102.451C328.803 98.0391 325.321 94.4625 321.026 94.4625C316.731 94.4625 313.25 98.0391 313.25 102.451C313.25 106.863 316.731 110.44 321.026 110.44Z" fill="#F8FCFF"/>
<path d="M87.2559 23.5242C89.747 23.5242 91.7665 21.4497 91.7665 18.8908C91.7665 16.3319 89.747 14.2574 87.2559 14.2574C84.7648 14.2574 82.7454 16.3319 82.7454 18.8908C82.7454 21.4497 84.7648 23.5242 87.2559 23.5242Z" fill="#F8FCFF"/>
<path d="M28.8896 180.568V196.102M20.053 185.434V203.682V185.434ZM20.053 185.434L28.8896 180.568L20.053 185.434ZM20.053 185.434L37.6354 186.557L20.053 185.434ZM20.053 203.682L37.6354 205.741L20.053 203.682ZM20.053 203.682L28.8896 196.102L20.053 203.682ZM37.6354 205.741L44.832 197.412L37.6354 205.741ZM37.6354 205.741V186.557V205.741ZM44.832 197.412V181.036V197.412ZM44.832 197.412L28.8896 196.102L44.832 197.412ZM44.832 181.036L28.8896 180.568L44.832 181.036ZM44.832 181.036L37.6354 186.557L44.832 181.036Z" stroke="white" stroke-width="0.320157"/>
<path d="M20.1443 186.089C20.4461 186.089 20.6909 185.838 20.6909 185.528C20.6909 185.218 20.4461 184.966 20.1443 184.966C19.8424 184.966 19.5977 185.218 19.5977 185.528C19.5977 185.838 19.8424 186.089 20.1443 186.089Z" fill="white"/>
<path d="M37.6357 206.303C37.9376 206.303 38.1823 206.051 38.1823 205.741C38.1823 205.431 37.9376 205.179 37.6357 205.179C37.3338 205.179 37.0891 205.431 37.0891 205.741C37.0891 206.051 37.3338 206.303 37.6357 206.303Z" fill="white"/>
<path d="M20.1443 204.244C20.4461 204.244 20.6909 203.992 20.6909 203.682C20.6909 203.372 20.4461 203.12 20.1443 203.12C19.8424 203.12 19.5977 203.372 19.5977 203.682C19.5977 203.992 19.8424 204.244 20.1443 204.244Z" fill="white"/>
<path d="M37.6357 186.65C37.9376 186.65 38.1823 186.399 38.1823 186.089C38.1823 185.779 37.9376 185.527 37.6357 185.527C37.3338 185.527 37.0891 185.779 37.0891 186.089C37.0891 186.399 37.3338 186.65 37.6357 186.65Z" fill="white"/>
<path d="M28.8896 181.223C29.1915 181.223 29.4362 180.971 29.4362 180.661C29.4362 180.351 29.1915 180.1 28.8896 180.1C28.5877 180.1 28.343 180.351 28.343 180.661C28.343 180.971 28.5877 181.223 28.8896 181.223Z" fill="white"/>
<path d="M44.7409 198.067C45.0428 198.067 45.2875 197.816 45.2875 197.506C45.2875 197.196 45.0428 196.944 44.7409 196.944C44.4391 196.944 44.1943 197.196 44.1943 197.506C44.1943 197.816 44.4391 198.067 44.7409 198.067Z" fill="white"/>
<path d="M28.8896 196.757C29.1915 196.757 29.4362 196.506 29.4362 196.195C29.4362 195.885 29.1915 195.634 28.8896 195.634C28.5877 195.634 28.343 195.885 28.343 196.195C28.343 196.506 28.5877 196.757 28.8896 196.757Z" fill="white"/>
<path d="M44.7409 181.784C45.0428 181.784 45.2875 181.533 45.2875 181.223C45.2875 180.913 45.0428 180.661 44.7409 180.661C44.4391 180.661 44.1943 180.913 44.1943 181.223C44.1943 181.533 44.4391 181.784 44.7409 181.784Z" fill="white"/>
<path d="M283.762 49.7957V73.3082M270.388 57.1611V84.781V57.1611ZM270.388 57.1611L283.762 49.7957L270.388 57.1611ZM270.388 57.1611L297.002 58.8607L270.388 57.1611ZM270.388 84.781L297.002 87.8972L270.388 84.781ZM270.388 84.781L283.762 73.3082L270.388 84.781ZM297.002 87.8972L307.892 75.2913L297.002 87.8972ZM297.002 87.8972V58.8607V87.8972ZM307.892 75.2913V50.5041V75.2913ZM307.892 75.2913L283.762 73.3082L307.892 75.2913ZM307.892 50.5041L283.762 49.7957L307.892 50.5041ZM307.892 50.5041L297.002 58.8607L307.892 50.5041Z" stroke="white" stroke-width="0.320157"/>
<path d="M270.527 58.1526C270.983 58.1526 271.354 57.772 271.354 57.3026C271.354 56.8331 270.983 56.4525 270.527 56.4525C270.07 56.4525 269.699 56.8331 269.699 57.3026C269.699 57.772 270.07 58.1526 270.527 58.1526Z" fill="white"/>
<path d="M297.002 88.7473C297.459 88.7473 297.83 88.3667 297.83 87.8973C297.83 87.4278 297.459 87.0472 297.002 87.0472C296.545 87.0472 296.175 87.4278 296.175 87.8973C296.175 88.3667 296.545 88.7473 297.002 88.7473Z" fill="white"/>
<path d="M270.527 85.6312C270.983 85.6312 271.354 85.2506 271.354 84.7812C271.354 84.3117 270.983 83.9312 270.527 83.9312C270.07 83.9312 269.699 84.3117 269.699 84.7812C269.699 85.2506 270.07 85.6312 270.527 85.6312Z" fill="white"/>
<path d="M297.002 59.0028C297.459 59.0028 297.83 58.6222 297.83 58.1528C297.83 57.6833 297.459 57.3027 297.002 57.3027C296.545 57.3027 296.175 57.6833 296.175 58.1528C296.175 58.6222 296.545 59.0028 297.002 59.0028Z" fill="white"/>
<path d="M283.762 50.788C284.219 50.788 284.59 50.4074 284.59 49.9379C284.59 49.4685 284.219 49.0879 283.762 49.0879C283.305 49.0879 282.935 49.4685 282.935 49.9379C282.935 50.4074 283.305 50.788 283.762 50.788Z" fill="white"/>
<path d="M307.755 76.2831C308.212 76.2831 308.583 75.9025 308.583 75.433C308.583 74.9636 308.212 74.583 307.755 74.583C307.298 74.583 306.928 74.9636 306.928 75.433C306.928 75.9025 307.298 76.2831 307.755 76.2831Z" fill="white"/>
<path d="M283.762 74.2997C284.219 74.2997 284.59 73.9191 284.59 73.4496C284.59 72.9802 284.219 72.5996 283.762 72.5996C283.305 72.5996 282.935 72.9802 282.935 73.4496C282.935 73.9191 283.305 74.2997 283.762 74.2997Z" fill="white"/>
<path d="M307.755 51.6378C308.212 51.6378 308.583 51.2572 308.583 50.7878C308.583 50.3183 308.212 49.9377 307.755 49.9377C307.298 49.9377 306.928 50.3183 306.928 50.7878C306.928 51.2572 307.298 51.6378 307.755 51.6378Z" fill="white"/>
<path d="M17.3801 13.7668V29.3013M8.54346 18.6331V36.8811V18.6331ZM8.54346 18.6331L17.3801 13.7668L8.54346 18.6331ZM8.54346 18.6331L26.1259 19.7559L8.54346 18.6331ZM8.54346 36.8811L26.1259 38.94L8.54346 36.8811ZM8.54346 36.8811L17.3801 29.3013L8.54346 36.8811ZM26.1259 38.94L33.3225 30.6114L26.1259 38.94ZM26.1259 38.94V19.7559V38.94ZM33.3225 30.6114V14.2347V30.6114ZM33.3225 30.6114L17.3801 29.3013L33.3225 30.6114ZM33.3225 14.2347L17.3801 13.7668L33.3225 14.2347ZM33.3225 14.2347L26.1259 19.7559L33.3225 14.2347Z" stroke="white" stroke-width="0.320157"/>
<path d="M8.63473 19.2884C8.93661 19.2884 9.18133 19.0369 9.18133 18.7268C9.18133 18.4166 8.93661 18.1652 8.63473 18.1652C8.33286 18.1652 8.08813 18.4166 8.08813 18.7268C8.08813 19.0369 8.33286 19.2884 8.63473 19.2884Z" fill="white"/>
<path d="M26.1257 39.5015C26.4276 39.5015 26.6723 39.2501 26.6723 38.9399C26.6723 38.6297 26.4276 38.3783 26.1257 38.3783C25.8238 38.3783 25.5791 38.6297 25.5791 38.9399C25.5791 39.2501 25.8238 39.5015 26.1257 39.5015Z" fill="white"/>
<path d="M8.63473 37.4428C8.93661 37.4428 9.18133 37.1913 9.18133 36.8812C9.18133 36.571 8.93661 36.3196 8.63473 36.3196C8.33286 36.3196 8.08813 36.571 8.08813 36.8812C8.08813 37.1913 8.33286 37.4428 8.63473 37.4428Z" fill="white"/>
<path d="M26.1257 19.8498C26.4276 19.8498 26.6723 19.5983 26.6723 19.2882C26.6723 18.978 26.4276 18.7266 26.1257 18.7266C25.8238 18.7266 25.5791 18.978 25.5791 19.2882C25.5791 19.5983 25.8238 19.8498 26.1257 19.8498Z" fill="white"/>
<path d="M17.3799 14.4222C17.6817 14.4222 17.9265 14.1707 17.9265 13.8606C17.9265 13.5504 17.6817 13.299 17.3799 13.299C17.078 13.299 16.8333 13.5504 16.8333 13.8606C16.8333 14.1707 17.078 14.4222 17.3799 14.4222Z" fill="white"/>
<path d="M33.2321 31.2665C33.534 31.2665 33.7787 31.0151 33.7787 30.7049C33.7787 30.3947 33.534 30.1433 33.2321 30.1433C32.9303 30.1433 32.6855 30.3947 32.6855 30.7049C32.6855 31.0151 32.9303 31.2665 33.2321 31.2665Z" fill="white"/>
<path d="M17.3799 29.9562C17.6817 29.9562 17.9265 29.7048 17.9265 29.3946C17.9265 29.0844 17.6817 28.833 17.3799 28.833C17.078 28.833 16.8333 29.0844 16.8333 29.3946C16.8333 29.7048 17.078 29.9562 17.3799 29.9562Z" fill="white"/>
<path d="M33.2321 14.9836C33.534 14.9836 33.7787 14.7321 33.7787 14.422C33.7787 14.1118 33.534 13.8604 33.2321 13.8604C32.9303 13.8604 32.6855 14.1118 32.6855 14.422C32.6855 14.7321 32.9303 14.9836 33.2321 14.9836Z" fill="white"/>
<path opacity="0.1" d="M157.247 197.035L116.03 195.118L133.761 184.254L148.07 187.13L138.271 181.538L147.448 165.401L161.602 170.354L170.001 172.59V180.579L169.378 189.207L168.756 197.035H157.247Z" fill="url(#paint2_linear_0_1294)"/>
<path d="M195.508 202.947L180.421 202.628L176.844 196.716L199.241 197.675L195.508 202.947Z" fill="url(#paint3_linear_0_1294)"/>
<path d="M271.566 158.211L256.634 157.732L252.901 151.98L275.299 152.939L271.566 158.211Z" fill="url(#paint4_linear_0_1294)"/>
<path d="M99.854 166.2L85.0781 165.721L81.1897 159.969L103.587 160.927L99.854 166.2Z" fill="url(#paint5_linear_0_1294)"/>
<path d="M181.666 130.731L166.89 130.252L163.002 124.5L185.399 125.458L181.666 130.731Z" fill="url(#paint6_linear_0_1294)"/>
<path opacity="0.1" d="M67.036 152.939L39.3506 142.554L67.036 139.518L95.0324 142.074L67.036 152.939Z" fill="url(#paint7_linear_0_1294)"/>
<path opacity="0.1" d="M272.811 216.847L225.217 209.019L238.282 183.615L292.097 192.722L272.811 216.847Z" fill="url(#paint8_linear_0_1294)"/>
<path d="M181.186 130.842L180.716 125.308L190.335 128.208L190.936 133.571L193.679 132.625L180.387 202.666L173.152 199.639L185.847 132.309L181.186 130.842Z" fill="#3486CC"/>
<path d="M245.439 114.241L240.12 116.267L250.484 155.254L256.634 157.732L245.439 114.241Z" fill="#3486CC"/>
<path d="M190.908 133.669L190.308 128.314L250.756 108.145L251.185 111.97L248.333 113.237L259.893 154.972L256.634 157.732L245.317 114.369L196.384 131.782L184.145 200.206L180.379 202.666L193.646 132.725L190.908 133.669Z" fill="#145F98"/>
<path d="M92.8689 96.6252L93.0403 90.7393L102.382 95.0045L102.466 100.228L105.333 99.5922L85.0781 165.72L78.0223 162.056L97.4416 98.5041L92.8689 96.6252Z" fill="#3486CC"/>
<path d="M159.489 87.0715L153.91 88.49L160.586 127.062L166.692 130.114L159.489 87.0715Z" fill="#3486CC"/>
<path d="M102.428 100.32L102.344 95.1037L165.463 81.7334L165.523 85.4593L162.515 86.3942L170.133 127.731L166.544 130.164L159.354 87.1819L108.152 99.0503L89.0875 163.701L85.0781 165.72L105.29 99.6849L102.428 100.32Z" fill="#145F98"/>
<path d="M189.148 125.737L84.6783 84.6432L155.27 67.4563L255.714 102.951L189.148 125.737Z" fill="#EAF1F6"/>
<path d="M85.0759 89.7389L84.6783 84.6428L189.148 125.737V131.05L85.0759 89.7389Z" fill="#D6DFEE"/>
<path d="M189.147 131.05V125.737L255.714 102.951V107.883L189.147 131.05Z" fill="#B5CCE3"/>
<path d="M189.132 128.015L84.7672 85.8351L84.9227 87.7523L189.132 129.293L255.701 106.605V105.327L189.132 128.015Z" fill="#5692C1"/>
<g style="mix-blend-mode:color-dodge" filter="url(#filter0_f_0_1294)">
<g style="mix-blend-mode:color-dodge">
<path d="M189.131 128.015L84.7668 85.8351L84.9224 87.7523L189.131 129.293L255.701 106.605V105.327L189.131 128.015Z" fill="#5692C1"/>
</g>
</g>
<path d="M118.519 65.5171L120.437 66.5025V24.6965L164.561 17.3768L161.683 16.8137L118.519 23.9926V65.5171Z" fill="#1F6FA0"/>
<path d="M164.56 56.227L120.437 66.5025V24.6965L164.56 17.3767V56.227Z" fill="#0578D1"/>
<path d="M164.56 56.227L120.437 66.5025V24.6965L164.56 17.3767V56.227Z" fill="url(#paint9_linear_0_1294)" fill-opacity="0.2"/>
<path d="M122.563 63.7865V46.5303L124.74 46.2117V63.2784L122.563 63.7865Z" fill="#66DBFF"/>
<path d="M125.984 58.6739V41.4177L128.161 41.0991V58.1659L125.984 58.6739Z" fill="#66DBFF"/>
<path d="M129.406 48.129V30.8728L131.583 30.5542V47.6209L129.406 48.129Z" fill="#66DBFF"/>
<path d="M132.516 45.5725V33.3363L134.694 33.1104V45.2121L132.516 45.5725Z" fill="#1F4855"/>
<path d="M135.939 52.9222V37.5484L138.116 37.2646V52.4694L135.939 52.9222Z" fill="#1F4855"/>
<path d="M158.024 39.5014V24.1276L160.202 23.8439V39.0486L158.024 39.5014Z" fill="#1F4855"/>
<path d="M139.049 46.2115V25.8177L141.227 25.4413V45.6108L139.049 46.2115Z" fill="#66DBFF"/>
<path d="M150.87 46.5312V26.1374L153.048 25.761V45.9305L150.87 46.5312Z" fill="#66DBFF"/>
<path d="M154.603 33.1105V19.6192L156.78 19.3702V32.7134L154.603 33.1105Z" fill="#66DBFF"/>
<path d="M161.136 34.7083V21.2169L163.313 20.968V34.3111L161.136 34.7083Z" fill="#66DBFF"/>
<path d="M142.471 53.8806V33.4868L144.649 33.1104V53.2798L142.471 53.8806Z" fill="#1F4855"/>
<path d="M145.893 54.8394V37.5832L148.07 37.2646V54.3314L145.893 54.8394Z" fill="#1F4855"/>
<path d="M147.786 90.4169L179.417 103.492L193.159 99.6101L193.189 98.0939L161.999 87.4023L147.818 88.7978L147.786 90.4169Z" fill="#5692C1"/>
<path d="M147.818 88.7981L179.445 102.053L193.189 98.0955L161.82 85.6838L147.818 88.7981Z" fill="white"/>
<path d="M222.261 83.7578V51.9634L219.617 52.6025V84.8762L222.261 83.7578Z" fill="#00397C"/>
<path d="M163.313 28.4772L160.046 28.9565L219.617 52.6026L222.261 51.9635L163.313 28.4772Z" fill="#1892DF"/>
<path d="M160.046 61.7096L161.977 62.7526L217.595 84.6335L219.617 84.8764V52.6026L160.046 28.9565V61.7096Z" fill="#2D67A6"/>
<path d="M162.231 32.0266V63.0222L217.913 84.2743V54.075L162.231 32.0266Z" fill="white"/>
<path d="M162.069 59.9519V62.8278L217.751 84.0773V81.3612L162.069 59.9519Z" fill="#133C5B"/>
<path d="M162.069 35.0277V31.8323L217.751 53.8807V56.5968L162.069 35.0277Z" fill="#133C5B"/>
<path d="M167.439 35.6788L167.868 36.4808M163.34 34.4025L163.424 33.2554C163.895 33.4838 164.047 34.0724 163.382 33.8289L163.34 34.4025ZM163.804 34.7265L164.036 34.2156L163.804 34.7265ZM164.469 34.97L164.369 34.3373L164.469 34.97ZM164.036 34.2156L164.265 33.7526L164.369 34.3373L164.036 34.2156ZM164.036 34.2156L164.369 34.3373L164.036 34.2156ZM164.656 33.7347L164.905 34.3306L164.656 33.7347ZM164.905 34.3306L165.418 33.9855L164.905 34.3306ZM164.905 34.3306L164.843 35.1908L164.905 34.3306ZM166.075 35.6701L165.507 35.4343L165.556 34.7652L166.075 35.6701ZM165.556 34.7652L165.598 34.1916L166.286 34.4846L165.556 34.7652ZM165.556 34.7652L165.937 34.8905L165.556 34.7652ZM167.017 36.1271L166.449 35.891L166.498 35.2218L167.017 36.1271ZM166.498 35.2218L166.54 34.6483L167.227 34.9416L166.498 35.2218ZM166.498 35.2218L166.879 35.3474L166.498 35.2218ZM167.439 35.6788L167.481 35.1052C167.952 35.3337 168.104 35.9223 167.439 35.6788ZM167.439 35.6788L167.391 36.3479L167.439 35.6788Z" stroke="white" stroke-width="0.160078"/>
<path d="M165.801 84.7163L193.798 95.7405L206.16 92.0658V90.7074L178.213 81.7695L165.801 83.2784V84.7163Z" fill="#5692C1"/>
<path d="M165.801 83.2787L193.798 94.4626L206.124 90.684L178.024 80.3389L165.801 83.2787Z" fill="#EEF7FF"/>
<path d="M196.175 90.4277L194.205 91.1329L194.316 84.5232L196.193 85.0747L196.175 90.4277Z" fill="#ACC0D8"/>
<path d="M194.205 91.133L194.299 85.0454L177.448 76.4366L177.653 84.5262L194.205 91.133Z" fill="#B9D1E6"/>
<path d="M219.617 84.7164L160.059 61.7094V71.5503L219.617 95.1015V84.7164Z" fill="#CFE4FF"/>
<path d="M222.261 83.7579L219.617 84.7166V95.1017L222.261 93.504V83.7579Z" fill="#BBCCEA"/>
<path d="M175.928 63.0823C179.846 62.5711 182.412 57.2282 181.66 51.1486C180.909 45.069 177.123 40.5549 173.206 41.0661C169.288 41.5773 166.722 46.9202 167.474 52.9998C168.225 59.0794 172.011 63.5935 175.928 63.0823Z" fill="#145F98"/>
<path d="M175.928 63.0823C179.846 62.5711 182.412 57.2282 181.66 51.1486C180.909 45.069 177.123 40.5549 173.206 41.0661C169.288 41.5773 166.722 46.9202 167.474 52.9998C168.225 59.0794 172.011 63.5935 175.928 63.0823Z" fill="url(#paint10_linear_0_1294)"/>
<path d="M203.092 73.2437C207.009 72.7325 209.576 67.3896 208.824 61.31C208.072 55.2304 204.287 50.7163 200.369 51.2275C196.452 51.7387 193.885 57.0816 194.637 63.1612C195.389 69.2408 199.174 73.7549 203.092 73.2437Z" fill="#145F98"/>
<path d="M203.092 73.2437C207.009 72.7325 209.576 67.3896 208.824 61.31C208.072 55.2304 204.287 50.7163 200.369 51.2275C196.452 51.7387 193.885 57.0816 194.637 63.1612C195.389 69.2408 199.174 73.7549 203.092 73.2437Z" fill="url(#paint11_linear_0_1294)"/>
<path d="M183.999 54.6796V52.9221L192.087 56.2773V58.0348L183.999 54.6796Z" fill="#145F98"/>
<path d="M183.999 58.0348V56.2773L192.087 59.7923V61.5498L183.999 58.0348Z" fill="#145F98"/>
<path d="M184.813 41.8576L184.833 41.4185L187.282 42.3719L187.263 42.8107L184.813 41.8576Z" fill="#1892DF"/>
<path d="M188.632 43.4398L188.651 43.001L191.1 43.9541L191.081 44.3932L188.632 43.4398Z" fill="#1892DF"/>
<path d="M192.405 44.9326L192.424 44.4934L194.874 45.4468L194.854 45.886L192.405 44.9326Z" fill="#1892DF"/>
<path d="M186.378 43.8443L186.385 43.4048L188.86 44.2866L188.852 44.7257L186.378 43.8443Z" fill="#1892DF"/>
<path d="M190.39 45.3729L190.398 44.9335L192.872 45.8169L192.864 46.2563L190.39 45.3729Z" fill="#1892DF"/>
<path d="M184.514 70.6162L184.539 70.1774L186.975 71.1637L186.95 71.6022L184.514 70.6162Z" fill="#4BB245"/>
<path d="M183.099 69.3269L183.197 68.8993L188.751 71.11L188.653 71.5377L183.099 69.3269Z" fill="white"/>
<path d="M214.897 54.2845C215.516 54.5274 216.63 54.8579 214.897 54.2845V54.2845ZM214.897 54.2845C214.212 53.9911 213.32 53.7054 214.897 54.2845V54.2845Z" stroke="#1892DF" stroke-width="1.28063"/>
<path d="M181.355 49.4072L168.29 56.6653L171.063 59.9521L181.666 55.159C181.974 53.9265 181.663 50.092 181.355 49.4072Z" fill="#002F6A"/>
<path d="M163.75 69.0326C168.146 68.9134 171.662 66.4114 171.603 63.4442L171.564 61.4905L171.022 61.5052C169.824 59.5352 166.911 58.1957 163.536 58.2874C160.511 58.3692 157.904 59.5787 156.59 61.2914L155.643 61.9222L155.682 63.8759C155.741 66.8431 159.354 69.1518 163.75 69.0326Z" fill="#EF8112"/>
<path d="M163.711 67.0785C168.108 66.9593 171.624 64.4572 171.564 61.4899C171.505 58.5227 167.893 56.2139 163.497 56.3331C159.1 56.4524 155.584 58.9545 155.644 61.9218C155.703 64.889 159.315 67.1978 163.711 67.0785Z" fill="#FFB00D"/>
<g style="mix-blend-mode:color-dodge">
<g style="mix-blend-mode:color-dodge">
<path d="M169.732 61.5397C169.755 62.6852 169.113 63.7583 168.019 64.5641C166.926 65.3694 165.396 65.8957 163.688 65.942C161.979 65.9883 160.43 65.5455 159.306 64.8003C158.182 64.0548 157.497 63.0176 157.474 61.8723C157.451 60.7268 158.094 59.6537 159.187 58.8479C160.28 58.0426 161.81 57.5163 163.519 57.47C165.227 57.4237 166.776 57.8665 167.9 58.6114C169.025 59.3572 169.709 60.3944 169.732 61.5397Z" stroke="#EF8112" stroke-width="0.320157"/>
</g>
</g>
<g style="mix-blend-mode:color-dodge" filter="url(#filter1_f_0_1294)">
<g style="mix-blend-mode:color-dodge">
<path d="M169.593 61.4762C169.616 62.6214 168.973 63.6947 167.88 64.5006C166.787 65.3059 165.257 65.8321 163.548 65.8785C161.84 65.9248 160.291 65.4819 159.167 64.7368C158.042 63.9913 157.358 62.954 157.335 61.8085C157.312 60.6632 157.954 59.5902 159.048 58.7843C160.141 57.9791 161.671 57.4525 163.379 57.4061C165.088 57.3598 166.637 57.8027 167.761 58.5479C168.885 59.2937 169.57 60.3306 169.593 61.4762Z" stroke="#EF8112" stroke-width="0.320157"/>
</g>
</g>
<path d="M163.75 69.0326C168.146 68.9134 171.662 66.4114 171.603 63.4442L171.564 61.4905L171.022 61.5052C169.824 59.5352 166.911 58.1957 163.536 58.2874C160.511 58.3692 157.904 59.5787 156.59 61.2914L155.643 61.9222L155.682 63.8759C155.741 66.8431 159.354 69.1518 163.75 69.0326Z" fill="#B57E1A"/>
<path d="M163.711 67.0785C168.108 66.9593 171.624 64.4572 171.564 61.4899C171.505 58.5227 167.893 56.2139 163.497 56.3331C159.1 56.4524 155.584 58.9545 155.644 61.9218C155.703 64.889 159.315 67.1978 163.711 67.0785Z" fill="#F5AB00"/>
<path d="M163.946 59.6674L160.728 62.4014C160.543 62.5583 160.592 62.8606 160.818 62.9401C160.898 62.9682 160.976 62.9954 161.053 63.021C165.397 64.481 164.453 62.1157 162.646 61.1274C166.499 62.8021 166.362 59.5974 164.134 59.5964C164.066 59.5961 163.999 59.623 163.946 59.6674Z" stroke="white" stroke-width="1.28063"/>
<path d="M159.993 63.5171L160.63 62.9434L161.37 63.2269L160.733 63.8958L159.993 63.5171Z" fill="white"/>
<path d="M161.368 64.0837L162.005 63.51L162.745 63.7935L162.108 64.4624L161.368 64.0837Z" fill="white"/>
<path d="M164.557 59.3112L165.194 58.7375L165.935 59.0207L165.297 59.69L164.557 59.3112Z" fill="white"/>
<path d="M165.402 60.0702L166.251 59.2098L166.992 59.4933L166.142 60.4487L165.402 60.0702Z" fill="white"/>
<path d="M166.631 56.8397C164.29 58.3959 167.567 59.1034 168.347 57.5472C168.472 57.5472 170.064 58.1131 171.156 59.9521C173.341 57.4056 168.503 55.5948 166.631 56.8397Z" fill="#F9D5B1"/>
<path d="M137.494 172.111L134.694 135.843C136.934 99.5431 171.82 131.689 173.889 138.399C176.253 146.068 161.037 167.584 153.986 177.863C158.217 175.562 161.904 179.62 162.068 182.496C162.172 184.307 160.14 187.96 151.181 188.088C139.858 185.788 144.907 178.928 148.848 175.786C151.388 169.342 156.5 156.262 156.625 155.495L145.426 152.619V165.72C146.919 164.698 148.781 165.72 148.848 166.998C149.345 176.585 142.315 183.934 137.494 181.218C135.316 179.991 135.316 173.496 137.494 172.111Z" fill="#0F6AD1"/>
<path d="M137.494 172.111L134.694 135.843C136.934 99.5431 171.82 131.689 173.889 138.399C176.253 146.068 161.037 167.584 153.986 177.863C158.217 175.562 161.904 179.62 162.068 182.496C162.172 184.307 160.14 187.96 151.181 188.088C139.858 185.788 144.907 178.928 148.848 175.786C151.388 169.342 156.5 156.262 156.625 155.495L145.426 152.619V165.72C146.919 164.698 148.781 165.72 148.848 166.998C149.345 176.585 142.315 183.934 137.494 181.218C135.316 179.991 135.316 173.496 137.494 172.111Z" fill="url(#paint12_linear_0_1294)"/>
<path d="M148.848 175.786C148.537 178.822 151.337 178.758 153.826 177.863C153.514 180.419 145.738 181.378 148.848 175.786Z" fill="white"/>
<path d="M137.494 172.111C139.515 172.697 143.839 173.07 144.959 169.875C144.959 174.188 137.805 177.863 137.494 172.111Z" fill="white"/>
<path d="M193.304 79.6839C197.7 79.5647 201.216 77.0626 201.157 74.0954L201.118 72.1417L200.575 72.1564C199.377 70.1864 196.464 68.8472 193.089 68.9386C190.065 69.0207 187.458 70.2302 186.144 71.9426L185.197 72.5734L185.236 74.5271C185.295 77.4943 188.907 79.8034 193.304 79.6839Z" fill="#EF8112"/>
<path d="M193.265 77.7305C197.661 77.6112 201.177 75.1091 201.118 72.1419C201.059 69.1746 197.447 66.8659 193.05 66.9851C188.654 67.1044 185.138 69.6065 185.197 72.5737C185.256 75.541 188.868 77.8497 193.265 77.7305Z" fill="#FFB00D"/>
<g style="mix-blend-mode:color-dodge">
<g style="mix-blend-mode:color-dodge">
<path d="M199.286 72.1912C199.308 73.3365 198.666 74.4095 197.572 75.2154C196.479 76.0206 194.949 76.5472 193.241 76.5936C191.533 76.6399 189.983 76.197 188.859 75.4518C187.735 74.706 187.05 73.6691 187.027 72.5236C187.004 71.3783 187.647 70.305 188.741 69.4991C189.833 68.6938 191.363 68.1676 193.072 68.1212C194.78 68.0749 196.329 68.5178 197.453 69.263C198.578 70.0084 199.263 71.0457 199.286 72.1912Z" stroke="#EF8112" stroke-width="0.320157"/>
</g>
</g>
<g style="mix-blend-mode:color-dodge" filter="url(#filter2_f_0_1294)">
<g style="mix-blend-mode:color-dodge">
<path d="M199.246 72.1764C199.268 73.2756 198.635 74.3081 197.555 75.0852C196.476 75.8613 194.965 76.3694 193.279 76.4154C191.592 76.4611 190.063 76.0352 188.954 75.3184C187.844 74.6007 187.171 73.6035 187.149 72.5046C187.127 71.4056 187.759 70.3729 188.839 69.5961C189.918 68.8196 191.429 68.3115 193.116 68.2658C194.803 68.2198 196.332 68.6458 197.441 69.3625C198.551 70.0802 199.224 71.0775 199.246 72.1764Z" stroke="#EF8112" stroke-width="0.320157"/>
</g>
</g>
<path d="M193.305 79.7556C197.702 79.6361 201.217 77.1006 201.157 74.0917L201.117 72.1106L200.575 72.1253C199.376 70.1275 196.463 68.7682 193.088 68.8596C190.064 68.9417 187.457 70.1671 186.143 71.9032L185.197 72.5423L185.236 74.5235C185.296 77.5323 188.909 79.8748 193.305 79.7556Z" fill="#2E8EB8"/>
<path d="M193.266 77.7742C197.663 77.6549 201.178 75.1191 201.118 72.1103C201.058 69.1015 197.445 66.7591 193.049 66.8783C188.652 66.9976 185.137 69.5334 185.197 72.5422C185.257 75.551 188.87 77.8934 193.266 77.7742Z" fill="#32C1FF"/>
<path d="M188.201 74.434L194.576 69.252C199.554 70.5499 196.133 76.1004 191.933 71.4006" stroke="white" stroke-width="1.60078"/>
<path d="M191.946 75.8027C193.251 80.9182 189.926 81.6004 188.101 81.302C184.954 80.9182 185.653 76.1436 186.12 76.8258C186.959 78.0535 188.955 78.8719 189.849 79.1278C188.45 73.7566 191.489 74.0123 191.946 75.8027Z" fill="#F9D5B1"/>
<path d="M134.694 61.7094C123.185 68.7393 110.431 86.3694 121.629 91.267C134.197 96.7631 135.576 73.8519 134.694 61.7094Z" fill="#F85318"/>
<path d="M116.03 118.109C114.008 143.992 156.158 132.967 156.158 122.103C152.301 103.442 155.899 77.4734 158.18 66.8222C156.884 65.0647 150.932 61.4858 137.494 61.2302C124.056 60.9745 117.585 99.0425 116.03 118.109Z" fill="#F47812"/>
<path d="M116.03 118.109C114.008 143.992 156.158 132.967 156.158 122.103C152.301 103.442 155.899 77.4734 158.18 66.8222C156.884 65.0647 150.932 61.4858 137.494 61.2302C124.056 60.9745 117.585 99.0425 116.03 118.109Z" fill="url(#paint13_linear_0_1294)"/>
<path d="M186.444 79.8829C174.044 89.7149 162.558 75.6979 158.477 67.1961C156.321 62.7027 149.446 67.6039 155.894 81.0723C167.046 104.368 181.614 89.5299 187.792 82.1293C189.027 80.808 187.118 79.3483 186.444 79.8829Z" fill="#EF8112"/>
<path d="M186.444 79.8829C174.044 89.7149 162.558 75.6979 158.477 67.1961C156.321 62.7027 149.446 67.6039 155.894 81.0723C167.046 104.368 181.614 89.5299 187.792 82.1293C189.027 80.808 187.118 79.3483 186.444 79.8829Z" fill="url(#paint14_linear_0_1294)"/>
<path d="M152.114 63.4671C148.257 65.0009 144.078 62.828 142.471 61.5498C144.493 27.5186 166.298 44.6141 164.557 50.8451C159.736 68.1004 156.003 61.3367 152.114 63.4671Z" fill="#F9D5B1"/>
<path d="M152.736 60.5909C145.519 62.5082 141.33 59.3661 140.138 57.5553C140.138 30.2344 151.025 35.5474 154.136 36.3057C172.489 40.7793 166.964 51.484 164.713 49.4069C157.091 42.377 158.75 50.0994 156.625 52.6024C152.145 51.8355 151.803 56.2771 154.447 57.5553L152.736 60.5909Z" fill="#002F6A"/>
<path d="M118.985 183.775V158.211H128.317V183.775C146.359 183.775 145.737 195.118 128.317 195.118H118.985C101.72 195.118 101.72 183.775 118.985 183.775Z" fill="#3486CC"/>
<path d="M118.985 183.775V158.211H128.317V183.775C146.359 183.775 145.737 195.118 128.317 195.118H118.985C101.72 195.118 101.72 183.775 118.985 183.775Z" fill="url(#paint15_linear_0_1294)"/>
<path d="M95.499 149.264L91.6106 116.032C87.7222 77.8464 141.227 112.996 141.227 137.761C141.227 155.866 160.513 116.032 160.513 154.217L132.672 166.999L95.499 149.264Z" fill="#E7EDF9"/>
<path d="M95.499 149.264L91.6106 116.032C87.7222 77.8464 141.227 112.996 141.227 137.761C141.227 155.866 160.513 116.032 160.513 154.217L132.672 166.999L95.499 149.264Z" fill="url(#paint16_linear_0_1294)"/>
<path d="M87.814 82.8856V65.9502L103.077 71.7758L102.708 89.0624L87.814 82.8856Z" fill="#BBD5F6"/>
<path d="M102.655 71.9164L87.8591 65.964L102.938 61.855L116.948 66.4164L102.655 71.9164Z" fill="#ECF3F9"/>
<path d="M116.948 83.5727V66.4167L102.708 71.8924V89.0624L116.948 83.5727Z" fill="#ADC7E9"/>
<path d="M223.816 105.647V88.551L239.308 94.4999L238.933 112.098L223.816 105.647Z" fill="#BBD5F6"/>
<path d="M238.903 94.6223L223.816 88.5842L239.167 84.4011L253.368 89.0303L238.903 94.6223Z" fill="#ECF3F9"/>
<path d="M253.369 106.446V89.0305L238.904 94.6225V112.103L253.369 106.446Z" fill="#A6BEDD"/>
<path d="M238.903 101.173L223.816 95.4211V98.1373L238.903 104.209L253.368 98.4568V95.7407L238.903 101.173Z" fill="#8ACDFF"/>
<g style="mix-blend-mode:color-dodge" filter="url(#filter3_f_0_1294)">
<g style="mix-blend-mode:color-dodge">
<path d="M253.369 95.7406L238.904 101.173V104.208L253.369 98.4567V95.7406Z" fill="#145F98"/>
</g>
</g>
<path d="M238.903 104.209V101.173L223.816 95.4211V98.1373L238.903 104.209Z" fill="#CDF9FF"/>
<g style="mix-blend-mode:color-dodge" filter="url(#filter4_f_0_1294)">
<g style="mix-blend-mode:color-dodge">
<path d="M238.903 104.209V101.173L223.816 95.4211V97.9775L238.903 104.209Z" fill="#1892DF"/>
</g>
</g>
<path d="M199.439 99.7746V93.5835L204.722 95.7379L204.594 102.111L199.439 99.7746Z" fill="#BBD5F6"/>
<path d="M204.584 95.7821L199.439 93.5952L204.673 92.0806L209.516 93.7569L204.584 95.7821Z" fill="#ECF3F9"/>
<path d="M209.516 100.064V93.7572L204.584 95.7825V102.113L209.516 100.064Z" fill="#A6BEDD"/>
<path d="M229.086 88.2164L229.38 78.8411L237.774 82.3851L237.265 92.0292L229.086 88.2164Z" fill="#BBD5F6"/>
<path d="M237.55 82.4454L229.38 78.8598L237.871 76.8445L245.579 79.6411L237.55 82.4454Z" fill="#ECF3F9"/>
<path d="M245.279 89.1917L245.579 79.6409L237.55 82.4452L237.249 92.0321L245.279 89.1917Z" fill="#A6BEDD"/>
<path d="M107.921 67.9408C111.529 67.9408 114.453 65.008 114.453 61.3902C114.453 57.7724 111.529 54.8396 107.921 54.8396C104.313 54.8396 101.388 57.7724 101.388 61.3902C101.388 65.008 104.313 67.9408 107.921 67.9408Z" fill="#ECF3F9"/>
<path d="M107.921 67.9408C111.529 67.9408 114.453 65.008 114.453 61.3902C114.453 57.7724 111.529 54.8396 107.921 54.8396C104.313 54.8396 101.388 57.7724 101.388 61.3902C101.388 65.008 104.313 67.9408 107.921 67.9408Z" fill="url(#paint17_radial_0_1294)" fill-opacity="0.39"/>
<path d="M186.788 110.094L182.733 107.873L182.788 107.077L190.39 105.393L193.892 106.612L193.836 107.409L186.788 110.094Z" fill="#145F98"/>
<path d="M186.844 109.297L182.788 107.077L190.446 104.597L193.892 106.612L186.844 109.297Z" fill="white"/>
<path d="M203.13 108.842L209.663 109.641" stroke="white" stroke-width="0.96047"/>
<path d="M211.871 105.612L209.291 105.55L210.557 107.397L213.12 107.597L211.871 105.612Z" fill="white"/>
<path d="M211.943 105.514L209.345 105.444L213.58 103.286L213.217 107.59L211.943 105.514Z" fill="white"/>
<path d="M210.487 107.495L213.192 107.727L208.396 109.939L209.188 105.555L210.487 107.495Z" fill="white"/>
<path d="M208.476 116.916C212.873 116.797 216.389 114.295 216.33 111.328L216.29 109.374L215.748 109.389C214.55 107.419 211.637 106.079 208.262 106.171C205.238 106.253 202.63 107.462 201.316 109.175L200.37 109.806L200.409 111.76C200.468 114.727 204.08 117.036 208.476 116.916Z" fill="#1D5770"/>
<path d="M208.437 114.962C212.833 114.843 216.349 112.341 216.29 109.374C216.231 106.406 212.619 104.098 208.222 104.217C203.826 104.336 200.31 106.838 200.369 109.805C200.428 112.773 204.04 115.081 208.437 114.962Z" fill="#4A84B6"/>
<path d="M209.314 108.121L206.735 108.059L208.001 109.906L210.563 110.106L209.314 108.121Z" fill="white"/>
<path d="M209.386 108.023L206.789 107.953L211.023 105.794L210.66 110.099L209.386 108.023Z" fill="white"/>
<path d="M207.93 110.004L210.635 110.235L205.839 112.447L206.631 108.064L207.93 110.004Z" fill="white"/>
<path d="M212.631 113.949C217.027 113.83 220.543 111.328 220.484 108.361L220.445 106.407L219.902 106.422C218.705 104.452 215.792 103.112 212.417 103.204C209.392 103.286 206.785 104.495 205.471 106.208L204.524 106.839L204.563 108.793C204.622 111.76 208.234 114.069 212.631 113.949Z" fill="#1D5770"/>
<path d="M212.591 111.995C216.988 111.876 220.504 109.374 220.445 106.407C220.385 103.44 216.773 101.131 212.377 101.25C207.981 101.369 204.465 103.871 204.524 106.839C204.583 109.806 208.195 112.115 212.591 111.995Z" fill="#4A84B6"/>
<path d="M213.469 105.154L210.89 105.092L212.156 106.939L214.718 107.138L213.469 105.154Z" fill="white"/>
<path d="M213.54 105.056L210.943 104.986L215.178 102.827L214.815 107.132L213.54 105.056Z" fill="white"/>
<path d="M212.084 107.036L214.79 107.268L209.993 109.48L210.785 105.097L212.084 107.036Z" fill="white"/>
<path d="M208.477 110.982C212.873 110.863 216.389 108.361 216.33 105.394L216.291 103.44L215.748 103.455C214.55 101.485 211.637 100.146 208.262 100.237C205.238 100.319 202.631 101.528 201.317 103.241L200.37 103.872L200.409 105.826C200.468 108.793 204.08 111.102 208.477 110.982Z" fill="#1D5770"/>
<path d="M208.437 109.028C212.834 108.909 216.35 106.407 216.29 103.439C216.231 100.472 212.619 98.1635 208.223 98.2827C203.826 98.402 200.31 100.904 200.369 103.871C200.429 106.839 204.041 109.147 208.437 109.028Z" fill="#4A84B6"/>
<path d="M209.315 102.187L206.735 102.125L208.001 103.972L210.564 104.171L209.315 102.187Z" fill="white"/>
<path d="M209.386 102.089L206.789 102.018L211.023 99.8602L210.66 104.165L209.386 102.089Z" fill="white"/>
<path d="M207.93 104.069L210.635 104.301L205.839 106.513L206.631 102.13L207.93 104.069Z" fill="white"/>
<path d="M187.985 122.396C192.381 122.277 195.897 119.775 195.838 116.808L195.799 114.854L195.257 114.869C194.059 112.899 191.146 111.559 187.771 111.651C184.746 111.733 182.139 112.942 180.825 114.655L179.878 115.286L179.917 117.239C179.976 120.207 183.589 122.515 187.985 122.396Z" fill="#306556"/>
<path d="M187.946 120.442C192.343 120.323 195.859 117.821 195.799 114.854C195.74 111.886 192.128 109.578 187.732 109.697C183.335 109.816 179.819 112.318 179.879 115.285C179.938 118.253 183.55 120.561 187.946 120.442Z" fill="#5AA996"/>
<path d="M191.592 112.517L186.615 111.398L183.504 113.156L186.304 118.269L192.214 115.393L191.592 112.517Z" fill="white"/>
<path d="M188.325 113.156L186.614 117.31M185.837 112.517L188.325 113.156L185.837 112.517ZM191.28 113.795L188.325 113.156L191.28 113.795Z" stroke="#5AA996" stroke-width="0.96047"/>
<path d="M187.703 114.434C186.148 113.977 183.504 113.955 187.081 116.032C191.436 116.512 189.881 115.073 187.703 114.434Z" stroke="#5AA996" stroke-width="0.320157"/>
<path d="M183.831 118.242C188.227 118.123 191.743 115.621 191.684 112.653L191.645 110.7L191.102 110.714C189.905 108.744 186.992 107.405 183.617 107.497C180.592 107.578 177.985 108.788 176.671 110.501L175.724 111.131L175.763 113.085C175.822 116.052 179.435 118.361 183.831 118.242Z" fill="#306556"/>
<path d="M183.792 116.288C188.188 116.169 191.704 113.667 191.645 110.699C191.586 107.732 187.974 105.423 183.577 105.543C179.181 105.662 175.665 108.164 175.724 111.131C175.783 114.099 179.395 116.407 183.792 116.288Z" fill="#5AA996"/>
<path d="M187.438 108.362L182.46 107.244L179.35 109.001L182.149 114.114L188.06 111.238L187.438 108.362Z" fill="white"/>
<path d="M184.171 109.002L182.46 113.156M181.682 108.362L184.171 109.002L181.682 108.362ZM187.126 109.641L184.171 109.002L187.126 109.641Z" stroke="#5AA996" stroke-width="0.96047"/>
<path d="M183.549 110.28C181.994 109.823 179.35 109.8 182.927 111.878C187.282 112.357 185.727 110.919 183.549 110.28Z" stroke="#5AA996" stroke-width="0.320157"/>
<path opacity="0.9" d="M226.927 34.6474C228.117 34.6729 229.19 35.3408 229.964 36.4215C230.737 37.5025 231.203 38.9896 231.17 40.6273C231.136 42.2646 230.61 43.7303 229.793 44.7771C228.977 45.8236 227.876 46.4452 226.687 46.4196C225.498 46.394 224.424 45.7259 223.651 44.6452C222.877 43.5642 222.412 42.077 222.445 40.4394C222.478 38.802 223.004 37.3363 223.821 36.2895C224.638 35.243 225.738 34.6218 226.927 34.6474Z" stroke="#0886E3" stroke-width="0.320157"/>
<path opacity="0.7" d="M229.487 33.5955C230.676 33.621 231.75 34.2892 232.524 35.3699C233.297 36.4509 233.763 37.9381 233.73 39.5757C233.696 41.213 233.17 42.6788 232.353 43.7256C231.536 44.7721 230.436 45.3933 229.247 45.3677C228.058 45.3422 226.984 44.6743 226.211 43.5933C225.437 42.5126 224.971 41.0252 225.005 39.3878C225.038 37.7505 225.564 36.2848 226.381 35.2379C227.197 34.1914 228.298 33.5699 229.487 33.5955Z" stroke="#0886E3" stroke-width="0.320157"/>
<path opacity="0.5" d="M232.558 32.544C233.747 32.5695 234.821 33.2377 235.594 34.3184C236.367 35.3994 236.834 36.8865 236.8 38.5239C236.767 40.1615 236.24 41.6273 235.424 42.6741C234.607 43.7206 233.507 44.3418 232.318 44.3162C231.129 44.2907 230.054 43.6228 229.281 42.5418C228.508 41.4608 228.042 39.9736 228.075 38.3363C228.109 36.699 228.635 35.2329 229.452 34.1864C230.268 33.1396 231.368 32.5184 232.558 32.544Z" stroke="#0887E3" stroke-width="0.320157"/>
<path opacity="0.3" d="M234.606 31.7556C235.795 31.7812 236.869 32.449 237.642 33.5301C238.415 34.6107 238.881 36.0982 238.848 37.7356C238.815 39.3729 238.289 40.8389 237.472 41.8854C236.655 42.9323 235.555 43.5535 234.366 43.5279C233.176 43.5023 232.103 42.8342 231.329 41.7535C230.556 40.6725 230.09 39.1853 230.123 37.548C230.157 35.9103 230.683 34.4446 231.5 33.3978C232.316 32.3513 233.417 31.7301 234.606 31.7556Z" stroke="#0887E3" stroke-width="0.320157"/>
<path opacity="0.1" d="M236.91 30.9663C238.099 30.9919 239.173 31.6601 239.946 32.7408C240.719 33.8218 241.185 35.3089 241.152 36.9462C241.119 38.5839 240.592 40.0496 239.776 41.0965C238.959 42.143 237.859 42.7642 236.67 42.7386C235.481 42.713 234.407 42.0452 233.633 40.9642C232.86 39.8835 232.394 38.396 232.427 36.7587C232.461 35.1213 232.987 33.6553 233.804 32.6088C234.62 31.562 235.72 30.9408 236.91 30.9663Z" stroke="#0886E3" stroke-width="0.320157"/>
<path d="M229.174 41.7601C229.243 38.4212 227.275 35.6709 224.78 35.6173L223.137 35.5818L223.128 35.994C221.428 36.8373 220.191 39.0025 220.139 41.5659C220.092 43.8624 221.008 45.8806 222.397 46.9345L222.89 47.6736L224.533 47.7087C227.028 47.7624 229.106 45.0993 229.174 41.7601Z" fill="#EF8112"/>
<path d="M227.531 41.7247C227.599 38.3857 225.632 35.6353 223.137 35.5817C220.642 35.528 218.564 38.1913 218.496 41.5303C218.428 44.8694 220.395 47.6197 222.89 47.6734C225.385 47.727 227.463 45.0637 227.531 41.7247Z" fill="#FFB00D"/>
<path opacity="0.5" d="M223.193 36.8648C225.118 36.9063 226.693 38.9705 226.64 41.5544C226.588 44.1382 224.93 46.1328 223.006 46.0915C221.081 46.05 219.506 43.9858 219.559 41.4019C219.611 38.8181 221.269 36.8235 223.193 36.8648Z" stroke="white" stroke-width="0.320157"/>
<g style="mix-blend-mode:color-dodge" filter="url(#filter5_f_0_1294)">
<g style="mix-blend-mode:color-dodge">
<path d="M223.193 36.8648C225.118 36.9063 226.693 38.9705 226.64 41.5544C226.588 44.1382 224.93 46.1328 223.006 46.0915C221.081 46.05 219.506 43.9858 219.559 41.4019C219.611 38.8181 221.269 36.8235 223.193 36.8648Z" stroke="#EF8112" stroke-width="0.320157"/>
</g>
</g>
<path d="M229.428 41.4781C229.295 38.135 227.071 35.5017 224.461 35.596L222.743 35.658L222.759 36.0705C221.035 37.0147 219.875 39.2531 219.978 41.8197C220.07 44.1191 221.151 46.083 222.666 47.0541L223.227 47.7641L224.945 47.7018C227.555 47.6076 229.562 44.8211 229.428 41.4781Z" fill="#1F69AF"/>
<path d="M227.71 41.5402C227.576 38.1972 225.352 35.5636 222.742 35.658C220.133 35.7523 218.126 38.5388 218.259 41.8818C218.393 45.2248 220.617 47.8584 223.227 47.764C225.836 47.6697 227.843 44.8832 227.71 41.5402Z" fill="#2489E5"/>
<path d="M222.014 42.8971C222.008 42.2434 221.563 41.7218 221.02 41.7321C220.477 41.7423 220.041 42.2806 220.046 42.9343C220.052 43.588 220.497 44.1096 221.04 44.0994C221.584 44.0891 222.02 43.5508 222.014 42.8971Z" fill="white"/>
<path d="M223.388 39.3204C223.383 38.6666 222.938 38.145 222.394 38.1553C221.851 38.1655 221.415 38.7038 221.421 39.3575C221.426 40.0112 221.871 40.5328 222.415 40.5226C222.958 40.5123 223.394 39.9741 223.388 39.3204Z" fill="white"/>
<path d="M225.388 43.0704C225.383 42.4167 224.938 41.895 224.394 41.9053C223.851 41.9155 223.415 42.4538 223.421 43.1075C223.427 43.7612 223.872 44.2828 224.415 44.2726C224.958 44.2623 225.394 43.7241 225.388 43.0704Z" fill="white"/>
<path d="M223.709 43.9304C222.852 42.4081 222.155 43.013 221.739 43.7311L220.599 41.8589C221.495 41.4633 221.52 40.0266 221.421 39.3578L223.114 40.1544C222.98 40.867 223.41 41.8058 224.535 41.903L223.709 43.9304Z" fill="white"/>
<path opacity="0.9" d="M207.828 9.84043C210.088 9.88904 212.119 11.1585 213.575 13.1931C215.03 15.2278 215.904 18.0213 215.841 21.0908C215.779 24.1606 214.792 26.9141 213.255 28.8844C211.718 30.8547 209.637 32.0354 207.377 31.9868C205.117 31.9383 203.086 30.669 201.631 28.6342C200.175 26.5997 199.302 23.8062 199.364 20.7364C199.427 17.6666 200.413 14.9134 201.95 12.943C203.488 10.9728 205.569 9.79183 207.828 9.84043Z" stroke="#107EA0" stroke-width="0.320157"/>
<path opacity="0.7" d="M212.583 7.8867C214.843 7.9353 216.874 9.20478 218.33 11.2393C219.785 13.274 220.659 16.0675 220.596 19.137C220.534 22.2069 219.547 24.9604 218.01 26.9307C216.473 28.901 214.391 30.082 212.132 30.0331C209.873 29.9845 207.841 28.7153 206.386 26.6805C204.93 24.6459 204.057 21.8525 204.119 18.7827C204.182 15.713 205.168 12.9596 206.705 10.9893C208.242 9.01912 210.324 7.8381 212.583 7.8867Z" stroke="#107EA0" stroke-width="0.320157"/>
<path opacity="0.5" d="M218.29 5.93247C220.549 5.98111 222.581 7.25055 224.036 9.28511C225.492 11.3198 226.365 14.1132 226.303 17.1828C226.24 20.2527 225.254 23.0061 223.716 24.9764C222.179 26.9467 220.098 28.1278 217.838 28.0789C215.579 28.0303 213.548 26.7611 212.092 24.7262C210.636 22.6917 209.763 19.8983 209.826 16.8284C209.888 13.7587 210.875 11.0054 212.412 9.03507C213.949 7.0649 216.03 5.88387 218.29 5.93247Z" stroke="#107EA0" stroke-width="0.320157"/>
<path opacity="0.3" d="M222.095 4.46702C224.354 4.51562 226.385 5.7851 227.841 7.81966C229.297 9.85438 230.17 12.6477 230.107 15.7175C230.045 18.7873 229.058 21.5408 227.521 23.5111C225.984 25.481 223.903 26.6621 221.643 26.6135C219.383 26.5649 217.352 25.2954 215.897 23.2609C214.441 21.2263 213.568 18.4329 213.63 15.3631C213.693 12.2933 214.679 9.53995 216.217 7.56962C217.754 5.59945 219.835 4.41842 222.095 4.46702Z" stroke="#107EA0" stroke-width="0.320157"/>
<path opacity="0.1" d="M226.375 3.00144C228.635 3.05005 230.666 4.31952 232.121 6.35405C233.577 8.38876 234.45 11.1821 234.388 14.2519C234.325 17.3218 233.339 20.0749 231.802 22.0455C230.264 24.0155 228.183 25.1965 225.924 25.148C223.664 25.0994 221.633 23.8299 220.177 21.7953C218.722 19.7605 217.848 16.9674 217.911 13.8975C217.973 10.8277 218.96 8.07437 220.497 6.10401C222.034 4.13384 224.115 2.95284 226.375 3.00144Z" stroke="#E502D8" stroke-width="0.320157"/>
<path d="M212.001 23.1935C212.128 16.9896 208.472 11.8795 203.836 11.7798L200.784 11.7141L200.768 12.4799C197.608 14.0467 195.31 18.0696 195.213 22.8321C195.126 27.0995 196.829 30.849 199.409 32.8069L200.326 34.1799L203.378 34.2458C208.014 34.3455 211.875 29.397 212.001 23.1935Z" fill="#EF8112"/>
<path d="M208.948 23.1275C209.074 16.9237 205.419 11.8137 200.783 11.714C196.147 11.6142 192.286 16.5626 192.16 22.7664C192.033 28.9702 195.689 34.0802 200.325 34.1799C204.961 34.2797 208.821 29.3313 208.948 23.1275Z" fill="#FFB00D"/>
<path opacity="0.5" d="M200.892 13.9607C204.567 14.0397 207.525 17.9678 207.426 22.8134C207.328 27.6589 204.212 31.4567 200.536 31.3774C196.861 31.2985 193.903 27.3704 194.002 22.5248C194.1 17.6793 197.216 13.8816 200.892 13.9607Z" stroke="white" stroke-width="0.320157"/>
<g style="mix-blend-mode:color-dodge" filter="url(#filter6_f_0_1294)">
<g style="mix-blend-mode:color-dodge">
<path d="M200.892 13.9607C204.567 14.0397 207.525 17.9678 207.426 22.8134C207.328 27.6589 204.212 31.4567 200.536 31.3774C196.861 31.2985 193.903 27.3704 194.002 22.5248C194.1 17.6793 197.216 13.8816 200.892 13.9607Z" stroke="#EF8112" stroke-width="0.320157"/>
</g>
</g>
<path d="M212.219 22.7435C211.988 16.4495 207.993 11.4715 203.297 11.6249L200.204 11.726L200.233 12.5029C197.126 14.2642 195.034 18.4674 195.211 23.2995C195.37 27.6287 197.31 31.3354 200.033 33.1778L201.041 34.5193L204.134 34.418C208.83 34.2646 212.45 29.0379 212.219 22.7435Z" fill="#2E8EB8"/>
<path d="M209.125 22.8446C208.894 16.5504 204.899 11.5724 200.203 11.7258C195.506 11.8793 191.886 17.1061 192.117 23.4003C192.348 29.6944 196.343 34.6725 201.04 34.519C205.736 34.3655 209.356 29.1387 209.125 22.8446Z" fill="#32C1FF"/>
<path d="M198.286 30.339L198.536 19.1482C204.258 15.0519 206.99 23.4613 198.432 23.7882" stroke="white" stroke-width="2.19228"/>
<path opacity="0.9" d="M178.68 19.1847C179.593 19.2042 180.419 19.7167 181.016 20.551C181.613 21.3857 181.974 22.5354 181.948 23.8027C181.922 25.07 181.515 26.2034 180.885 27.0115C180.254 27.8194 179.407 28.2961 178.495 28.2763C177.582 28.2568 176.755 27.7439 176.158 26.9096C175.561 26.0753 175.201 24.9256 175.226 23.6583C175.252 22.391 175.659 21.2575 176.29 20.4494C176.921 19.6416 177.767 19.1649 178.68 19.1847Z" stroke="#0888E4" stroke-width="0.320157"/>
<path opacity="0.7" d="M180.673 18.3661C181.585 18.3855 182.412 18.8984 183.009 19.7327C183.606 20.5671 183.967 21.7168 183.941 22.9844C183.915 24.2517 183.508 25.3848 182.877 26.1929C182.247 27.0007 181.4 27.4775 180.487 27.458C179.575 27.4382 178.748 26.9256 178.151 26.0913C177.554 25.2567 177.193 24.107 177.219 22.8396C177.245 21.5723 177.653 20.4392 178.283 19.6311C178.913 18.823 179.76 18.3466 180.673 18.3661Z" stroke="#0888E4" stroke-width="0.320157"/>
<path opacity="0.5" d="M183.063 17.5472C183.976 17.567 184.803 18.0796 185.399 18.9139C185.996 19.7485 186.357 20.8982 186.331 22.1656C186.306 23.4329 185.898 24.566 185.268 25.3741C184.638 26.1822 183.791 26.6586 182.878 26.6391C181.965 26.6193 181.139 26.1068 180.542 25.2725C179.945 24.4381 179.584 23.2881 179.61 22.0208C179.636 20.7535 180.043 19.6204 180.673 18.8123C181.304 18.0045 182.151 17.5277 183.063 17.5472Z" stroke="#0886E3" stroke-width="0.320157"/>
<path opacity="0.3" d="M184.657 16.9332C185.57 16.953 186.396 17.4655 186.993 18.2999C187.59 19.1345 187.951 20.2842 187.925 21.5515C187.899 22.8188 187.492 23.9519 186.862 24.7601C186.231 25.5679 185.384 26.0446 184.472 26.0251C183.559 26.0053 182.732 25.4928 182.135 24.6584C181.538 23.8238 181.178 22.6741 181.203 21.4068C181.229 20.1395 181.637 19.0064 182.267 18.1983C182.898 17.3901 183.744 16.9137 184.657 16.9332Z" stroke="#0888E4" stroke-width="0.320157"/>
<path opacity="0.1" d="M186.45 16.3197C187.362 16.3392 188.189 16.852 188.786 17.6863C189.383 18.5207 189.743 19.6704 189.718 20.9377C189.692 22.2053 189.285 23.3384 188.654 24.1465C188.024 24.9543 187.177 25.4311 186.264 25.4113C185.351 25.3918 184.525 24.8792 183.928 24.0449C183.331 23.2103 182.97 22.0606 182.996 20.7933C183.022 19.526 183.429 18.3929 184.06 17.5847C184.69 16.7766 185.537 16.3002 186.45 16.3197Z" stroke="#0887E3" stroke-width="0.320157"/>
<path d="M180.43 24.6854C180.483 22.0865 178.952 19.9459 177.01 19.9041L175.731 19.8766L175.724 20.1974C174.401 20.8537 173.438 22.539 173.397 24.5339C173.361 26.3217 174.074 27.8923 175.155 28.7126L175.539 29.2877L176.818 29.3152C178.76 29.3571 180.377 27.2842 180.43 24.6854Z" fill="#EF8112"/>
<path d="M179.152 24.6578C179.205 22.059 177.673 19.9183 175.731 19.8765C173.789 19.8348 172.172 21.9077 172.119 24.5065C172.066 27.1054 173.597 29.246 175.539 29.2878C177.481 29.3296 179.099 27.2567 179.152 24.6578Z" fill="#FFB00D"/>
<path opacity="0.5" d="M175.774 20.9105C177.246 20.9422 178.464 22.5248 178.423 24.5242C178.383 26.5236 177.101 28.0526 175.63 28.021C174.158 27.9893 172.94 26.4066 172.98 24.4073C173.021 22.4076 174.303 20.8789 175.774 20.9105Z" stroke="white" stroke-width="0.320157"/>
<g style="mix-blend-mode:color-dodge" filter="url(#filter7_f_0_1294)">
<g style="mix-blend-mode:color-dodge">
<path d="M175.774 20.9105C177.246 20.9422 178.464 22.5248 178.423 24.5242C178.383 26.5236 177.101 28.0526 175.63 28.021C174.158 27.9893 172.94 26.4066 172.98 24.4073C173.021 22.4076 174.303 20.8789 175.774 20.9105Z" stroke="#EF8112" stroke-width="0.320157"/>
</g>
</g>
<path d="M180.612 24.6646C180.646 22.0492 179.036 19.8964 177.017 19.8562L175.687 19.83L175.683 20.1527C174.312 20.8148 173.324 22.5116 173.298 24.5196C173.275 26.3186 174.029 27.8987 175.159 28.7228L175.563 29.3015L176.893 29.3277C178.913 29.368 180.577 27.2801 180.612 24.6646Z" fill="#13669B"/>
<path d="M179.283 24.6382C179.317 22.0228 177.707 19.87 175.688 19.8299C173.668 19.7898 172.003 21.8776 171.969 24.4931C171.935 27.1086 173.544 29.2614 175.564 29.3014C177.583 29.3415 179.248 27.2537 179.283 24.6382Z" fill="#0885E3"/>
<path d="M173.309 24.6327L175.787 24.2119M174.252 23.2488L177.245 22.7199C177.436 22.6864 177.612 22.8365 177.612 23.0343L177.616 24.8509C177.616 25.0053 177.507 25.1372 177.358 25.1638L173.964 25.7687L174.252 23.2488Z" stroke="white" stroke-width="0.96047"/>
<path opacity="0.9" d="M39.0093 51.1388C39.9216 51.1583 40.7485 51.6708 41.3454 52.5051C41.9423 53.3398 42.3032 54.4895 42.2774 55.7568C42.2515 57.0241 41.844 58.1572 41.2138 58.9653C40.5833 59.7734 39.7365 60.2499 38.8239 60.2304C37.9112 60.2109 37.0843 59.698 36.4874 58.8637C35.8905 58.0294 35.5299 56.8797 35.5557 55.6124C35.5816 54.3451 35.9888 53.2116 36.6193 52.4035C37.2495 51.5957 38.0966 51.119 39.0093 51.1388Z" stroke="#4BB245" stroke-width="0.320157"/>
<path opacity="0.7" d="M41.0015 50.3204C41.9138 50.3399 42.7407 50.8528 43.3376 51.6871C43.9346 52.5214 44.2954 53.6711 44.2696 54.9384C44.2438 56.2057 43.8363 57.3392 43.206 58.1473C42.5755 58.9551 41.7288 59.4318 40.8161 59.412C39.9034 59.3925 39.0765 58.88 38.4796 58.0457C37.8826 57.211 37.5221 56.0613 37.5479 54.794C37.5737 53.5267 37.9809 52.3933 38.6115 51.5855C39.2417 50.7773 40.0888 50.3009 41.0015 50.3204Z" stroke="#4BB245" stroke-width="0.320157"/>
<path opacity="0.5" d="M43.3921 49.5014C44.3045 49.5212 45.1313 50.0338 45.7282 50.8681C46.3252 51.7028 46.686 52.8525 46.6602 54.1198C46.6344 55.3871 46.2269 56.5202 45.5967 57.3283C44.9661 58.1364 44.1194 58.6129 43.2067 58.5934C42.294 58.5736 41.4672 58.061 40.8702 57.2267C40.2733 56.392 39.9127 55.2423 39.9386 53.975C39.9644 52.7077 40.3716 51.5746 41.0021 50.7665C41.6323 49.9584 42.4794 49.4819 43.3921 49.5014Z" stroke="#4BB245" stroke-width="0.320157"/>
<path opacity="0.3" d="M44.9856 48.8874C45.8983 48.9072 46.7248 49.4198 47.3217 50.2541C47.9187 51.0884 48.2795 52.2385 48.2537 53.5058C48.2279 54.7731 47.8207 55.9062 47.1901 56.7143C46.5596 57.5221 45.7129 57.9988 44.8002 57.9794C43.8875 57.9595 43.0607 57.447 42.464 56.6127C41.8671 55.778 41.5062 54.6283 41.5321 53.361C41.5579 52.0937 41.9651 50.9606 42.5956 50.1525C43.2258 49.3444 44.0729 48.8679 44.9856 48.8874Z" stroke="#4BB245" stroke-width="0.320157"/>
<path opacity="0.1" d="M46.7781 48.274C47.6907 48.2935 48.5176 48.8064 49.1145 49.6407C49.7115 50.475 50.0723 51.6248 50.0465 52.8921C50.0207 54.1594 49.6132 55.2928 48.9826 56.1009C48.3524 56.9087 47.5053 57.3855 46.593 57.3657C45.6803 57.3462 44.8535 56.8336 44.2565 55.9993C43.6596 55.1647 43.2987 54.0149 43.3245 52.7476C43.3504 51.4803 43.7579 50.3469 44.3884 49.5388C45.0186 48.731 45.8657 48.2542 46.7781 48.274Z" stroke="#4BB245" stroke-width="0.320157"/>
<path d="M41.0438 56.1533C40.8273 53.4864 38.9904 51.4564 36.9411 51.6197L35.5916 51.727L35.6184 52.0562C34.2932 52.8684 33.4561 54.6962 33.6222 56.7439C33.7713 58.578 34.6867 60.1112 35.9108 60.8362L36.3759 61.3846L37.725 61.2772C39.7743 61.1142 41.2603 58.8202 41.0438 56.1533Z" fill="#4C874C"/>
<path d="M39.6946 56.2608C39.4781 53.5939 37.6412 51.5641 35.5919 51.7272C33.5425 51.8903 32.0567 54.1844 32.2732 56.8513C32.4898 59.5182 34.3266 61.548 36.376 61.3849C38.4253 61.2218 39.9111 58.9277 39.6946 56.2608Z" fill="#4BB245"/>
<path d="M35.1709 55.3382L34.9507 57.9134C34.9317 58.1365 35.137 58.31 35.3442 58.239L35.3675 58.231C37.9964 57.3248 36.5054 56.4128 35.2409 56.5832C37.7068 55.9939 36.2842 54.3518 35.273 55.1369C35.2117 55.1845 35.1778 55.2596 35.1709 55.3382Z" stroke="white" stroke-width="0.640313"/>
<path d="M35.1084 58.914L35.1404 58.3547L35.6036 58.2189L35.6145 58.83L35.1084 58.914Z" fill="white"/>
<path d="M35.9875 58.6841L36.0196 58.1247L36.4831 57.9889L36.4937 58.6L35.9875 58.6841Z" fill="white"/>
<path d="M35.293 54.8534L35.3247 54.2937L35.7882 54.1576L35.7988 54.769L35.293 54.8534Z" fill="white"/>
<path d="M36.0179 54.9343L36.0176 54.1366L36.4811 54.0007L36.524 54.8503L36.0179 54.9343Z" fill="white"/>
<path d="M93.6523 41.4123C93.4956 46.6946 96.9621 51.0896 101.395 51.2286L104.314 51.32L104.333 50.6681C107.365 49.3705 109.586 45.9708 109.706 41.9155C109.814 38.282 108.208 35.0687 105.752 33.371L104.882 32.1909L101.963 32.0992C97.5302 31.9602 93.8091 36.1299 93.6523 41.4123Z" fill="#EF8112"/>
<g style="mix-blend-mode:color-dodge" opacity="0.5" filter="url(#filter8_f_0_1294)">
<g style="mix-blend-mode:color-dodge" opacity="0.5">
<path d="M93.6056 41.3965C93.4488 46.6789 96.9154 51.0738 101.348 51.2128L104.267 51.3042L104.287 50.6524C107.318 49.3547 109.539 45.9551 109.659 41.8998C109.767 38.2663 108.161 35.053 105.705 33.3552L104.836 32.1752L101.917 32.0835C97.4834 31.9445 93.7627 36.1142 93.6056 41.3965Z" fill="#EF8112"/>
</g>
</g>
<path d="M96.5709 41.5039C96.414 46.7863 99.8806 51.1811 104.314 51.3201C108.747 51.459 112.468 47.2894 112.625 42.007C112.782 36.7246 109.315 32.3297 104.882 32.1908C100.449 32.0518 96.7278 36.2214 96.5709 41.5039Z" fill="#F5AB00"/>
<path d="M103.109 38.8976L102.505 46.3255C102.47 46.7519 102.908 47.0686 103.289 46.886C103.424 46.8213 103.556 46.757 103.684 46.6934C110.926 43.0946 106.797 41.3206 103.309 42.3415C110.207 39.624 106.037 35.7955 103.255 38.575C103.169 38.6596 103.119 38.7766 103.109 38.8976Z" stroke="white" stroke-width="1.72367"/>
<path d="M102.98 48.636L103.059 47.125L104.337 46.5549L104.376 48.1851L102.98 48.636Z" fill="white"/>
<path d="M105.402 47.6272L105.481 46.1166L106.759 45.5464L106.799 47.1763L105.402 47.6272Z" fill="white"/>
<path d="M103.427 37.6906L103.506 36.1799L104.783 35.6094L104.823 37.2396L103.427 37.6906Z" fill="white"/>
<path d="M105.429 37.5835L105.416 35.4496L106.693 34.8794L106.825 37.1322L105.429 37.5835Z" fill="white"/>
<g style="mix-blend-mode:overlay" opacity="0.5" filter="url(#filter9_f_0_1294)">
<g style="mix-blend-mode:overlay" opacity="0.5">
<path d="M143.404 62.1889C155.945 62.1889 166.112 51.8883 166.112 39.1818C166.112 26.4754 155.945 16.1748 143.404 16.1748C130.863 16.1748 120.696 26.4754 120.696 39.1818C120.696 51.8883 130.863 62.1889 143.404 62.1889Z" fill="white"/>
</g>
</g>
<g style="mix-blend-mode:overlay" opacity="0.25" filter="url(#filter10_f_0_1294)">
<g style="mix-blend-mode:overlay" opacity="0.25">
<path d="M241.081 121.304C253.622 121.304 263.789 111.004 263.789 98.2971C263.789 85.5906 253.622 75.29 241.081 75.29C228.539 75.29 218.372 85.5906 218.372 98.2971C218.372 111.004 228.539 121.304 241.081 121.304Z" fill="white"/>
</g>
</g>
<path d="M53.5049 144.63C62.6103 144.63 69.9917 142.72 69.9917 140.362V134.086H37.0181V140.362C37.0181 142.72 44.3995 144.63 53.5049 144.63Z" fill="#3376B3"/>
<path d="M53.5049 137.601C62.6103 137.601 69.9917 136.027 69.9917 134.086C69.9917 132.145 62.6103 130.571 53.5049 130.571C44.3995 130.571 37.0181 132.145 37.0181 134.086C37.0181 136.027 44.3995 137.601 53.5049 137.601Z" fill="#1CA5E5"/>
<path d="M53.5049 141.435C62.6103 141.435 69.9917 139.861 69.9917 137.92V136.961C69.9917 138.903 62.6103 140.476 53.5049 140.476C44.3995 140.476 37.0181 138.903 37.0181 136.961V137.92C37.0181 139.861 44.3995 141.435 53.5049 141.435Z" fill="#61CBFF"/>
<path d="M58.637 136.962C59.0665 136.962 59.4147 136.747 59.4147 136.482C59.4147 136.217 59.0665 136.003 58.637 136.003C58.2076 136.003 57.8594 136.217 57.8594 136.482C57.8594 136.747 58.2076 136.962 58.637 136.962Z" fill="#F9620C"/>
<path d="M224.439 191.603L209.507 173.869L247.769 166.519L263.634 175.307L224.439 191.603Z" fill="#1971A8"/>
<path d="M228.453 189.181C232.849 189.061 236.365 186.559 236.306 183.592L236.267 181.638L235.724 181.653C234.527 179.683 231.614 178.344 228.239 178.435C225.214 178.517 222.607 179.727 221.293 181.439L220.346 182.07L220.385 184.024C220.444 186.991 224.056 189.3 228.453 189.181Z" fill="#2E8EB8"/>
<path d="M228.414 187.226C232.811 187.107 236.327 184.605 236.267 181.638C236.208 178.671 232.596 176.362 228.2 176.481C223.803 176.6 220.287 179.102 220.346 182.07C220.406 185.037 224.018 187.346 228.414 187.226Z" fill="#32C1FF"/>
<path d="M223.35 183.934L229.727 178.822C234.704 180.1 231.282 185.575 227.082 180.941" stroke="white" stroke-width="1.60078"/>
<path d="M226.587 185.985C230.983 185.866 234.499 183.364 234.44 180.397L234.401 178.443L233.858 178.458C232.66 176.488 229.747 175.148 226.372 175.24C223.348 175.322 220.741 176.531 219.427 178.244L218.48 178.875L218.519 180.828C218.578 183.796 222.19 186.104 226.587 185.985Z" fill="#2E8EB8"/>
<path d="M226.547 184.031C230.944 183.912 234.46 181.41 234.401 178.442C234.341 175.475 230.729 173.166 226.333 173.286C221.936 173.405 218.42 175.907 218.48 178.874C218.539 181.841 222.151 184.15 226.547 184.031Z" fill="#32C1FF"/>
<path d="M221.483 180.739L227.86 175.626C232.837 176.904 229.416 182.379 225.216 177.746" stroke="white" stroke-width="1.60078"/>
<path d="M221.298 184.707C225.695 184.588 229.211 182.085 229.152 179.118L229.112 177.165L228.57 177.18C227.372 175.21 224.459 173.87 221.084 173.962C218.06 174.044 215.452 175.253 214.138 176.966L213.192 177.597L213.231 179.55C213.29 182.517 216.902 184.826 221.298 184.707Z" fill="#B57E1A"/>
<path d="M221.259 182.753C225.655 182.634 229.171 180.131 229.112 177.164C229.053 174.197 225.441 171.888 221.044 172.007C216.648 172.127 213.132 174.629 213.191 177.596C213.25 180.563 216.862 182.872 221.259 182.753Z" fill="#F5AB00"/>
<path d="M221.494 175.341L218.276 178.075C218.091 178.232 218.139 178.535 218.365 178.614C218.445 178.642 218.524 178.669 218.6 178.695C222.944 180.155 222 177.79 220.194 176.801C224.046 178.476 223.909 175.271 221.681 175.27C221.613 175.27 221.546 175.297 221.494 175.341Z" stroke="white" stroke-width="1.28063"/>
<path d="M217.541 179.191L218.178 178.618L218.918 178.901L218.281 179.57L217.541 179.191Z" fill="white"/>
<path d="M218.916 179.759L219.553 179.185L220.293 179.468L219.656 180.137L218.916 179.759Z" fill="white"/>
<path d="M222.106 174.985L222.742 174.412L223.483 174.695L222.846 175.364L222.106 174.985Z" fill="white"/>
<path d="M222.951 175.745L223.8 174.884L224.541 175.168L223.691 176.123L222.951 175.745Z" fill="white"/>
<path d="M250.539 182.79C254.936 182.671 258.452 180.168 258.392 177.201L258.353 175.248L257.811 175.262C256.613 173.292 253.7 171.953 250.325 172.044C247.301 172.126 244.693 173.336 243.379 175.048L242.433 175.679L242.472 177.633C242.531 180.6 246.143 182.909 250.539 182.79Z" fill="#5C05E7"/>
<path d="M250.5 180.836C254.897 180.717 258.413 178.214 258.353 175.247C258.294 172.28 254.682 169.971 250.286 170.09C245.889 170.21 242.373 172.712 242.432 175.679C242.492 178.646 246.104 180.955 250.5 180.836Z" fill="#24789C"/>
<path d="M225.216 184.414H225.061L224.283 187.449L224.594 187.13L225.216 184.414Z" fill="#1892DF"/>
<path d="M242.762 188.861C247.159 188.742 250.675 186.239 250.615 183.272L250.576 181.319L250.034 181.333C248.836 179.363 245.923 178.024 242.548 178.116C239.524 178.197 236.916 179.407 235.602 181.12L234.656 181.75L234.695 183.704C234.754 186.671 238.366 188.98 242.762 188.861Z" fill="#122C3F"/>
<path d="M242.723 186.907C247.119 186.788 250.635 184.286 250.576 181.319C250.517 178.351 246.905 176.043 242.508 176.162C238.112 176.281 234.596 178.783 234.655 181.75C234.714 184.718 238.326 187.026 242.723 186.907Z" fill="#17516A"/>
<path d="M238.903 182.423L243.788 179.461L244.069 184.891" stroke="white" stroke-width="1.60078"/>
<path d="M239.837 179.78L245.747 182.496" stroke="#003B37" stroke-width="0.640313"/>
<path d="M239.525 180.739L245.124 183.296" stroke="#003B37" stroke-width="0.640313"/>
<path d="M240.273 183.429C244.669 183.31 248.185 180.807 248.126 177.84L248.087 175.887L247.545 175.901C246.347 173.931 243.434 172.592 240.059 172.684C237.034 172.765 234.427 173.975 233.113 175.688L232.167 176.318L232.205 178.272C232.264 181.239 235.877 183.548 240.273 183.429Z" fill="#1C6585"/>
<path d="M240.235 181.475C244.631 181.355 248.147 178.853 248.088 175.886C248.029 172.919 244.417 170.61 240.02 170.729C235.624 170.849 232.108 173.351 232.167 176.318C232.226 179.285 235.838 181.594 240.235 181.475Z" fill="#24789C"/>
<path d="M236.414 176.99L241.299 174.029L241.58 179.459" stroke="white" stroke-width="1.60078"/>
<path d="M237.348 174.348L243.258 177.064" stroke="#003B37" stroke-width="0.640313"/>
<path d="M221.455 182.882C225.851 182.762 229.367 180.26 229.308 177.293L229.269 175.339L228.726 175.354C227.529 173.384 224.616 172.045 221.24 172.136C218.216 172.218 215.609 173.428 214.295 175.14L213.348 175.771L213.387 177.725C213.446 180.692 217.058 183.001 221.455 182.882Z" fill="#13669B"/>
<path d="M221.416 180.927C225.813 180.808 229.329 178.306 229.269 175.339C229.21 172.371 225.598 170.063 221.202 170.182C216.805 170.301 213.289 172.803 213.348 175.77C213.408 178.738 217.02 181.046 221.416 180.927Z" fill="#0885E3"/>
<path d="M216.974 173.859L221.018 175.166M219.562 172.842L224.652 174.455C224.854 174.519 224.936 174.768 224.814 174.945L223.089 177.447C223.012 177.559 222.872 177.608 222.744 177.567L216.974 175.747L219.562 172.842Z" stroke="white" stroke-width="1.60078"/>
<path d="M227.318 187.081C231.715 186.961 235.231 184.459 235.172 181.492L235.132 179.538L234.59 179.553C233.392 177.583 230.479 176.244 227.104 176.335C224.08 176.417 221.472 177.627 220.158 179.339L219.212 179.97L219.251 181.924C219.31 184.891 222.922 187.2 227.318 187.081Z" fill="#B57E1A"/>
<path d="M227.28 185.127C231.676 185.008 235.192 182.506 235.133 179.538C235.074 176.571 231.462 174.262 227.065 174.382C222.669 174.501 219.153 177.003 219.212 179.97C219.271 182.937 222.883 185.246 227.28 185.127Z" fill="#F5AB00"/>
<path d="M227.515 177.715L224.297 180.449C224.112 180.606 224.161 180.908 224.386 180.988C224.466 181.016 224.545 181.043 224.622 181.069C228.965 182.529 228.022 180.164 226.215 179.175C230.068 180.85 229.931 177.645 227.702 177.644C227.634 177.644 227.567 177.671 227.515 177.715Z" stroke="white" stroke-width="1.28063"/>
<path d="M223.561 181.566L224.198 180.992L224.939 181.275L224.301 181.944L223.561 181.566Z" fill="white"/>
<path d="M224.936 182.132L225.573 181.559L226.313 181.842L225.676 182.511L224.936 182.132Z" fill="white"/>
<path d="M228.126 177.359L228.763 176.785L229.503 177.069L228.866 177.738L228.126 177.359Z" fill="white"/>
<path d="M228.97 178.119L229.82 177.258L230.56 177.542L229.71 178.497L228.97 178.119Z" fill="white"/>
<path d="M237.037 175.307L242.636 177.864" stroke="#003B37" stroke-width="0.640313"/>
<path d="M208.418 190.804L206.085 173.229L224.438 187.13L225.216 209.018L208.418 190.804Z" fill="#2D67A6"/>
<path d="M266.589 175.786L224.438 187.13L225.216 209.018L261.767 197.195L266.589 175.786Z" fill="#00397C"/>
<path d="M247.769 165.72L206.085 173.23L224.438 187.13L225.06 184.414L210.751 174.029L247.147 167.478L262.389 174.987L225.216 184.414L224.594 187.13L266.589 175.786L247.769 165.72Z" fill="#1892DF"/>
<path d="M214.795 187.129C215.74 187.129 216.506 185.913 216.506 184.413C216.506 182.913 215.74 181.697 214.795 181.697C213.85 181.697 213.084 182.913 213.084 184.413C213.084 185.913 213.85 187.129 214.795 187.129Z" fill="#EF8112"/>
<path d="M214.795 187.129C215.74 187.129 216.506 185.913 216.506 184.413C216.506 182.913 215.74 181.697 214.795 181.697C213.85 181.697 213.084 182.913 213.084 184.413C213.084 185.913 213.85 187.129 214.795 187.129Z" fill="url(#paint18_linear_0_1294)"/>
<path d="M216.508 154.06L209.061 171.987L247.233 165.25L258.781 153.669L216.508 154.06Z" fill="#1971A8"/>
<path d="M219.83 159.15L219.685 159.2L217.866 157.193L218.27 157.332L219.83 159.15Z" fill="#1892DF"/>
<path d="M201.927 159.758L206.116 173.551L218.125 157.381L210.933 140.88L201.927 159.758Z" fill="#2D67A6"/>
<path d="M261.351 152.371L218.126 157.381L210.933 140.88L249.134 138.011L261.351 152.371Z" fill="#00397C"/>
<path d="M247.522 165.843L206.116 173.552L218.125 157.381L219.685 159.2L210.158 171.472L246.309 164.737L257.742 154.303L219.83 159.15L218.27 157.332L261.351 152.372L247.522 165.843Z" fill="#1892DF"/>
<path d="M244.007 175.76C248.403 175.641 251.919 173.138 251.86 170.171L251.821 168.217L251.278 168.232C250.08 166.262 247.167 164.923 243.792 165.015C240.768 165.096 238.161 166.306 236.847 168.019L235.9 168.649L235.939 170.603C235.998 173.57 239.61 175.879 244.007 175.76Z" fill="#13669B"/>
<path d="M243.968 173.805C248.364 173.686 251.88 171.184 251.821 168.217C251.761 165.25 248.149 162.941 243.753 163.06C239.357 163.179 235.841 165.681 235.9 168.649C235.959 171.616 239.571 173.925 243.968 173.805Z" fill="#0885E3"/>
<path d="M239.525 166.737L243.569 168.044M242.114 165.72L247.203 167.334C247.405 167.397 247.488 167.646 247.365 167.823L245.64 170.325C245.563 170.438 245.424 170.486 245.295 170.446L239.525 168.625L242.114 165.72Z" stroke="white" stroke-width="1.60078"/>
<path d="M221.455 179.32C225.851 179.201 229.367 176.699 229.308 173.732L229.269 171.778L228.726 171.793C227.529 169.823 224.616 168.484 221.24 168.575C218.216 168.657 215.609 169.867 214.295 171.579L213.348 172.21L213.387 174.164C213.446 177.131 217.058 179.44 221.455 179.32Z" fill="#13669B"/>
<path d="M221.416 177.366C225.813 177.247 229.329 174.745 229.269 171.778C229.21 168.811 225.598 166.502 221.202 166.621C216.805 166.74 213.289 169.242 213.348 172.21C213.408 175.177 217.02 177.486 221.416 177.366Z" fill="#0885E3"/>
<path d="M216.974 170.298L221.018 171.605M219.562 169.281L224.652 170.894C224.854 170.958 224.936 171.207 224.814 171.384L223.089 173.886C223.012 173.998 222.872 174.047 222.744 174.007L216.974 172.186L219.562 169.281Z" stroke="white" stroke-width="1.60078"/>
<path d="M253.027 177.038C257.424 176.919 260.94 174.416 260.881 171.449L260.841 169.495L260.299 169.51C259.101 167.54 256.188 166.201 252.813 166.293C249.789 166.374 247.181 167.584 245.867 169.297L244.921 169.927L244.96 171.881C245.019 174.848 248.631 177.157 253.027 177.038Z" fill="#2E8EB8"/>
<path d="M252.989 175.084C257.385 174.965 260.901 172.463 260.842 169.495C260.783 166.528 257.171 164.219 252.774 164.339C248.378 164.458 244.862 166.96 244.921 169.927C244.98 172.894 248.592 175.203 252.989 175.084Z" fill="#1FAEEC"/>
<path d="M248.46 172.267L254.837 167.155C259.814 168.433 256.392 173.908 252.193 169.275" stroke="white" stroke-width="1.60078"/>
<path d="M232.494 176.994C236.891 176.875 240.407 174.373 240.348 171.405L240.308 169.452L239.766 169.466C238.568 167.496 235.655 166.157 232.28 166.249C229.256 166.33 226.648 167.54 225.334 169.253L224.388 169.883L224.427 171.837C224.486 174.804 228.098 177.113 232.494 176.994Z" fill="#306556"/>
<path d="M232.455 175.04C236.851 174.921 240.367 172.418 240.308 169.451C240.249 166.484 236.637 164.175 232.24 164.294C227.844 164.414 224.328 166.916 224.387 169.883C224.446 172.85 228.059 175.159 232.455 175.04Z" fill="#5AA996"/>
<path d="M236.101 167.114L231.124 165.996L228.013 167.753L230.813 172.866L236.723 169.99L236.101 167.114Z" fill="white"/>
<path d="M232.835 167.753L231.124 171.907M230.346 167.114L232.835 167.753L230.346 167.114ZM235.79 168.392L232.835 167.753L235.79 168.392Z" stroke="#5AA996" stroke-width="0.96047"/>
<path d="M232.213 169.032C230.657 168.575 228.013 168.552 231.59 170.63C235.945 171.109 234.39 169.671 232.213 169.032Z" stroke="#5AA996" stroke-width="0.320157"/>
<path d="M239.335 180.416C243.732 180.297 247.248 177.795 247.189 174.828L247.149 172.874L246.607 172.889C245.409 170.919 242.496 169.579 239.121 169.671C236.097 169.753 233.489 170.962 232.175 172.675L231.229 173.306L231.268 175.259C231.327 178.227 234.939 180.535 239.335 180.416Z" fill="#1D5770"/>
<path d="M239.296 178.462C243.693 178.343 247.209 175.841 247.15 172.873C247.09 169.906 243.478 167.597 239.082 167.717C234.685 167.836 231.169 170.338 231.229 173.305C231.288 176.272 234.9 178.581 239.296 178.462Z" fill="#4A84B6"/>
<path d="M240.174 171.621L237.595 171.559L238.861 173.405L241.423 173.605L240.174 171.621Z" fill="white"/>
<path d="M240.245 171.522L237.648 171.452L241.882 169.294L241.519 173.599L240.245 171.522Z" fill="white"/>
<path d="M238.789 173.503L241.494 173.735L236.698 175.947L237.49 171.563L238.789 173.503Z" fill="white"/>
<path d="M227.318 183.52C231.714 183.401 235.23 180.898 235.171 177.931L235.132 175.977L234.59 175.992C233.392 174.023 230.479 172.683 227.104 172.775C224.079 172.857 221.472 174.066 220.158 175.779L219.211 176.409L219.25 178.363C219.309 181.33 222.922 183.639 227.318 183.52Z" fill="#B57E1A"/>
<path d="M227.28 181.566C231.676 181.447 235.192 178.945 235.133 175.977C235.074 173.01 231.462 170.701 227.065 170.821C222.669 170.94 219.153 173.442 219.212 176.409C219.271 179.376 222.883 181.685 227.28 181.566Z" fill="#F5AB00"/>
<path d="M227.515 174.154L224.297 176.888C224.112 177.045 224.161 177.347 224.386 177.427C224.466 177.455 224.545 177.482 224.622 177.508C228.965 178.968 228.022 176.602 226.215 175.614C230.068 177.289 229.931 174.084 227.702 174.083C227.634 174.083 227.567 174.11 227.515 174.154Z" stroke="white" stroke-width="1.28063"/>
<path d="M223.561 178.004L224.198 177.431L224.938 177.714L224.301 178.383L223.561 178.004Z" fill="white"/>
<path d="M224.936 178.571L225.573 177.997L226.313 178.281L225.676 178.95L224.936 178.571Z" fill="white"/>
<path d="M228.126 173.798L228.763 173.224L229.503 173.508L228.866 174.177L228.126 173.798Z" fill="white"/>
<path d="M228.97 174.558L229.82 173.697L230.56 173.981L229.71 174.936L228.97 174.558Z" fill="white"/>
<path d="M210.129 164.762C211.074 164.762 211.84 163.546 211.84 162.046C211.84 160.546 211.074 159.33 210.129 159.33C209.185 159.33 208.419 160.546 208.419 162.046C208.419 163.546 209.185 164.762 210.129 164.762Z" fill="#EF8112"/>
<path d="M210.129 164.762C211.074 164.762 211.84 163.546 211.84 162.046C211.84 160.546 211.074 159.33 210.129 159.33C209.185 159.33 208.419 160.546 208.419 162.046C208.419 163.546 209.185 164.762 210.129 164.762Z" fill="url(#paint19_linear_0_1294)"/>
<defs>
<filter id="filter0_f_0_1294" x="83.8064" y="84.8746" width="172.855" height="45.3787" filterUnits="userSpaceOnUse" color-interpolation-filters="sRGB">
<feFlood flood-opacity="0" result="BackgroundImageFix"/>
<feBlend mode="normal" in="SourceGraphic" in2="BackgroundImageFix" result="shape"/>
<feGaussianBlur stdDeviation="0.480235" result="effect1_foregroundBlur_0_1294"/>
</filter>
<filter id="filter1_f_0_1294" x="156.854" y="56.9226" width="13.2197" height="9.43939" filterUnits="userSpaceOnUse" color-interpolation-filters="sRGB">
<feFlood flood-opacity="0" result="BackgroundImageFix"/>
<feBlend mode="normal" in="SourceGraphic" in2="BackgroundImageFix" result="shape"/>
<feGaussianBlur stdDeviation="0.160078" result="effect1_foregroundBlur_0_1294"/>
</filter>
<filter id="filter2_f_0_1294" x="186.668" y="67.7823" width="13.0583" height="9.11675" filterUnits="userSpaceOnUse" color-interpolation-filters="sRGB">
<feFlood flood-opacity="0" result="BackgroundImageFix"/>
<feBlend mode="normal" in="SourceGraphic" in2="BackgroundImageFix" result="shape"/>
<feGaussianBlur stdDeviation="0.160078" result="effect1_foregroundBlur_0_1294"/>
</filter>
<filter id="filter3_f_0_1294" x="237.623" y="94.46" width="17.0261" height="11.029" filterUnits="userSpaceOnUse" color-interpolation-filters="sRGB">
<feFlood flood-opacity="0" result="BackgroundImageFix"/>
<feBlend mode="normal" in="SourceGraphic" in2="BackgroundImageFix" result="shape"/>
<feGaussianBlur stdDeviation="0.640313" result="effect1_foregroundBlur_0_1294"/>
</filter>
<filter id="filter4_f_0_1294" x="222.216" y="93.8204" width="18.2885" height="11.9889" filterUnits="userSpaceOnUse" color-interpolation-filters="sRGB">
<feFlood flood-opacity="0" result="BackgroundImageFix"/>
<feBlend mode="normal" in="SourceGraphic" in2="BackgroundImageFix" result="shape"/>
<feGaussianBlur stdDeviation="0.800392" result="effect1_foregroundBlur_0_1294"/>
</filter>
<filter id="filter5_f_0_1294" x="219.077" y="36.3839" width="8.04485" height="10.1885" filterUnits="userSpaceOnUse" color-interpolation-filters="sRGB">
<feFlood flood-opacity="0" result="BackgroundImageFix"/>
<feBlend mode="normal" in="SourceGraphic" in2="BackgroundImageFix" result="shape"/>
<feGaussianBlur stdDeviation="0.160078" result="effect1_foregroundBlur_0_1294"/>
</filter>
<filter id="filter6_f_0_1294" x="193.519" y="13.4793" width="14.3898" height="18.3796" filterUnits="userSpaceOnUse" color-interpolation-filters="sRGB">
<feFlood flood-opacity="0" result="BackgroundImageFix"/>
<feBlend mode="normal" in="SourceGraphic" in2="BackgroundImageFix" result="shape"/>
<feGaussianBlur stdDeviation="0.160078" result="effect1_foregroundBlur_0_1294"/>
</filter>
<filter id="filter7_f_0_1294" x="172.499" y="20.4298" width="6.40521" height="8.07183" filterUnits="userSpaceOnUse" color-interpolation-filters="sRGB">
<feFlood flood-opacity="0" result="BackgroundImageFix"/>
<feBlend mode="normal" in="SourceGraphic" in2="BackgroundImageFix" result="shape"/>
<feGaussianBlur stdDeviation="0.160078" result="effect1_foregroundBlur_0_1294"/>
</filter>
<filter id="filter8_f_0_1294" x="90.3989" y="28.8785" width="22.4672" height="25.6273" filterUnits="userSpaceOnUse" color-interpolation-filters="sRGB">
<feFlood flood-opacity="0" result="BackgroundImageFix"/>
<feBlend mode="normal" in="SourceGraphic" in2="BackgroundImageFix" result="shape"/>
<feGaussianBlur stdDeviation="1.60078" result="effect1_foregroundBlur_0_1294"/>
</filter>
<filter id="filter9_f_0_1294" x="104.688" y="0.166969" width="77.4322" height="78.0297" filterUnits="userSpaceOnUse" color-interpolation-filters="sRGB">
<feFlood flood-opacity="0" result="BackgroundImageFix"/>
<feBlend mode="normal" in="SourceGraphic" in2="BackgroundImageFix" result="shape"/>
<feGaussianBlur stdDeviation="8.00392" result="effect1_foregroundBlur_0_1294"/>
</filter>
<filter id="filter10_f_0_1294" x="202.365" y="59.2822" width="77.4322" height="78.0297" filterUnits="userSpaceOnUse" color-interpolation-filters="sRGB">
<feFlood flood-opacity="0" result="BackgroundImageFix"/>
<feBlend mode="normal" in="SourceGraphic" in2="BackgroundImageFix" result="shape"/>
<feGaussianBlur stdDeviation="8.00392" result="effect1_foregroundBlur_0_1294"/>
</filter>
<linearGradient id="paint0_linear_0_1294" x1="252.799" y1="300.473" x2="102.282" y2="108.936" gradientUnits="userSpaceOnUse">
<stop stop-color="#E4EDF8"/>
<stop offset="1" stop-color="#F9FCFF"/>
</linearGradient>
<linearGradient id="paint1_linear_0_1294" x1="294.896" y1="176.105" x2="272.309" y2="172.314" gradientUnits="userSpaceOnUse">
<stop stop-color="#B6B6B6"/>
<stop offset="1" stop-color="#B6B6B6" stop-opacity="0"/>
</linearGradient>
<linearGradient id="paint2_linear_0_1294" x1="129.208" y1="188.366" x2="161.152" y2="190.442" gradientUnits="userSpaceOnUse">
<stop/>
<stop offset="1" stop-opacity="0"/>
</linearGradient>
<linearGradient id="paint3_linear_0_1294" x1="179.799" y1="202.148" x2="196.597" y2="201.845" gradientUnits="userSpaceOnUse">
<stop stop-color="#C9C9C9"/>
<stop offset="1" stop-color="#E7E7E7" stop-opacity="0"/>
</linearGradient>
<linearGradient id="paint4_linear_0_1294" x1="255.857" y1="157.412" x2="272.655" y2="157.109" gradientUnits="userSpaceOnUse">
<stop stop-color="#C9C9C9"/>
<stop offset="1" stop-color="#E7E7E7" stop-opacity="0"/>
</linearGradient>
<linearGradient id="paint5_linear_0_1294" x1="84.1449" y1="165.401" x2="100.943" y2="165.098" gradientUnits="userSpaceOnUse">
<stop stop-color="#C9C9C9"/>
<stop offset="1" stop-color="#E7E7E7" stop-opacity="0"/>
</linearGradient>
<linearGradient id="paint6_linear_0_1294" x1="165.957" y1="129.932" x2="182.755" y2="129.629" gradientUnits="userSpaceOnUse">
<stop stop-color="#C9C9C9"/>
<stop offset="1" stop-color="#E7E7E7" stop-opacity="0"/>
</linearGradient>
<linearGradient id="paint7_linear_0_1294" x1="52.9473" y1="149.261" x2="85.2361" y2="154.363" gradientUnits="userSpaceOnUse">
<stop/>
<stop offset="1" stop-opacity="0"/>
</linearGradient>
<linearGradient id="paint8_linear_0_1294" x1="241.548" y1="207.74" x2="281.067" y2="210.77" gradientUnits="userSpaceOnUse">
<stop/>
<stop offset="1" stop-opacity="0"/>
</linearGradient>
<linearGradient id="paint9_linear_0_1294" x1="149.936" y1="42.0575" x2="142.066" y2="-16.5241" gradientUnits="userSpaceOnUse">
<stop stop-color="#C0E4FF"/>
<stop offset="1" stop-opacity="0"/>
</linearGradient>
<linearGradient id="paint10_linear_0_1294" x1="183.936" y1="61.5016" x2="163.105" y2="57.6825" gradientUnits="userSpaceOnUse">
<stop stop-color="#EF8112"/>
<stop offset="1" stop-color="#EF8112" stop-opacity="0"/>
</linearGradient>
<linearGradient id="paint11_linear_0_1294" x1="211.1" y1="71.6627" x2="190.268" y2="67.8439" gradientUnits="userSpaceOnUse">
<stop stop-color="#EF8112"/>
<stop offset="1" stop-color="#EF8112" stop-opacity="0"/>
</linearGradient>
<linearGradient id="paint12_linear_0_1294" x1="122.407" y1="133.127" x2="165.721" y2="182.946" gradientUnits="userSpaceOnUse">
<stop stop-color="#004D9D"/>
<stop offset="1" stop-opacity="0"/>
</linearGradient>
<linearGradient id="paint13_linear_0_1294" x1="153.825" y1="125.458" x2="101.766" y2="103.782" gradientUnits="userSpaceOnUse">
<stop stop-color="#FD5509"/>
<stop offset="1" stop-color="#FD5509" stop-opacity="0"/>
</linearGradient>
<linearGradient id="paint14_linear_0_1294" x1="183.411" y1="93.0982" x2="141.259" y2="79.7869" gradientUnits="userSpaceOnUse">
<stop stop-color="#FD5509"/>
<stop offset="1" stop-color="#FD5509" stop-opacity="0"/>
</linearGradient>
<linearGradient id="paint15_linear_0_1294" x1="168.134" y1="195.118" x2="122.406" y2="195.421" gradientUnits="userSpaceOnUse">
<stop stop-color="#145F98"/>
<stop offset="1" stop-opacity="0"/>
</linearGradient>
<linearGradient id="paint16_linear_0_1294" x1="144.804" y1="170.194" x2="111.872" y2="161.686" gradientUnits="userSpaceOnUse">
<stop stop-color="#B4C7E7"/>
<stop offset="1" stop-color="#B4C7E7" stop-opacity="0"/>
</linearGradient>
<radialGradient id="paint17_radial_0_1294" cx="0" cy="0" r="1" gradientUnits="userSpaceOnUse" gradientTransform="translate(111.932 65.8721) rotate(-158.016) scale(9.51663 9.53562)">
<stop stop-color="#ADC7E9"/>
<stop offset="1" stop-color="#145F98" stop-opacity="0"/>
</radialGradient>
<linearGradient id="paint18_linear_0_1294" x1="220.238" y1="182.816" x2="210.03" y2="187.555" gradientUnits="userSpaceOnUse">
<stop stop-color="#FD5509"/>
<stop offset="1" stop-color="#FD5509" stop-opacity="0"/>
</linearGradient>
<linearGradient id="paint19_linear_0_1294" x1="215.573" y1="160.448" x2="205.364" y2="165.188" gradientUnits="userSpaceOnUse">
<stop stop-color="#FD5509"/>
<stop offset="1" stop-color="#FD5509" stop-opacity="0"/>
</linearGradient>
</defs>
</svg>
