<svg width="147" height="64" viewBox="0 0 147 64" fill="none" xmlns="http://www.w3.org/2000/svg">
<path opacity="0.6" d="M18.3858 45.1622C17.0699 45.1622 15.9657 44.7296 15.0734 43.8643C14.1901 42.99 13.7484 41.8679 13.7484 40.4978C13.7484 39.1278 14.1901 38.0102 15.0734 37.1449C15.9657 36.2706 17.0699 35.8334 18.3858 35.8334C19.8279 35.8334 20.9681 36.4283 21.8064 37.6181L20.86 38.1454C20.5986 37.7578 20.2471 37.4423 19.8054 37.199C19.3637 36.9556 18.8905 36.8339 18.3858 36.8339C17.3943 36.8339 16.5651 37.1809 15.8981 37.875C15.2401 38.56 14.9112 39.4343 14.9112 40.4978C14.9112 41.5614 15.2401 42.4402 15.8981 43.1342C16.5651 43.8193 17.3943 44.1618 18.3858 44.1618C18.8905 44.1618 19.3637 44.0446 19.8054 43.8102C20.2471 43.5669 20.5986 43.2469 20.86 42.8503L21.8199 43.3776C20.9456 44.5674 19.8009 45.1622 18.3858 45.1622ZM30.6917 45H29.3667L27.0683 41.4172H25.2702V45H24.148V35.9822H27.7714C28.6096 35.9822 29.2901 36.23 29.8129 36.7258C30.3357 37.2215 30.597 37.8795 30.597 38.6997C30.597 39.4748 30.3717 40.0922 29.921 40.5519C29.4704 41.0116 28.9161 41.2685 28.2581 41.3226L30.6917 45ZM27.6362 40.4302C28.1679 40.4302 28.6006 40.268 28.9341 39.9435C29.2676 39.619 29.4343 39.2044 29.4343 38.6997C29.4343 38.1949 29.2676 37.7848 28.9341 37.4694C28.6006 37.1449 28.1679 36.9826 27.6362 36.9826H25.2702V40.4302H27.6362ZM36.8053 45H35.6831V41.1874L32.1274 35.9822H33.4388L36.2375 40.1734L39.0361 35.9822H40.3475L36.8053 41.1874V45ZM43.5436 45H42.4214V35.9822H46.0448C46.9191 35.9822 47.6086 36.2435 48.1133 36.7663C48.6181 37.2891 48.8705 37.9335 48.8705 38.6997C48.8705 39.4658 48.6136 40.1103 48.0998 40.633C47.5951 41.1558 46.9101 41.4172 46.0448 41.4172H43.5436V45ZM45.9096 40.4167C46.4414 40.4167 46.874 40.259 47.2075 39.9435C47.541 39.619 47.7077 39.2044 47.7077 38.6997C47.7077 38.1949 47.541 37.7848 47.2075 37.4694C46.874 37.1449 46.4414 36.9826 45.9096 36.9826H43.5436V40.4167H45.9096ZM54.6074 45H53.4853V36.9826H50.6325V35.9822H57.4737V36.9826H54.6074V45ZM63.6034 45.1622C62.2785 45.1622 61.2014 44.7206 60.3722 43.8373C59.5429 42.954 59.1283 41.8408 59.1283 40.4978C59.1283 39.1549 59.5429 38.0417 60.3722 37.1584C61.2014 36.2751 62.2785 35.8334 63.6034 35.8334C64.9194 35.8334 65.992 36.2751 66.8212 37.1584C67.6594 38.0417 68.0786 39.1549 68.0786 40.4978C68.0786 41.8408 67.6594 42.954 66.8212 43.8373C65.992 44.7206 64.9194 45.1622 63.6034 45.1622ZM63.6034 44.1618C64.5949 44.1618 65.3926 43.8193 65.9965 43.1342C66.6094 42.4402 66.9158 41.5614 66.9158 40.4978C66.9158 39.4253 66.6094 38.5465 65.9965 37.8614C65.3926 37.1764 64.5949 36.8339 63.6034 36.8339C62.603 36.8339 61.8008 37.1764 61.1969 37.8614C60.593 38.5465 60.291 39.4253 60.291 40.4978C60.291 41.5614 60.593 42.4402 61.1969 43.1342C61.8008 43.8193 62.603 44.1618 63.6034 44.1618ZM83.2249 45H82.0081L80.0207 37.7262L78.0333 45H76.8165L74.2477 35.9822H75.4915L77.4925 43.4993L79.561 35.9822H80.4939L82.5625 43.4993L84.5499 35.9822H85.7937L83.2249 45ZM95.0327 45H93.7483L92.9506 42.999H88.462L87.6643 45H86.3799L90.0033 35.9822H91.3958L95.0327 45ZM92.6126 41.9986L90.7063 37.1449L88.7865 41.9986H92.6126ZM102.423 45H97.1096V35.9822H98.2318V43.9995H102.423V45ZM110.213 45H104.9V35.9822H106.022V43.9995H110.213V45ZM118.598 45H112.69V35.9822H118.598V36.9826H113.812V39.8894H118.503V40.8899H113.812V43.9995H118.598V45ZM124.638 45H123.516V36.9826H120.663V35.9822H127.504V36.9826H124.638V45Z" fill="white"/>
<path fill-rule="evenodd" clip-rule="evenodd" d="M18.2376 16.9663C18.2376 17.5187 18.2384 18.3779 18.2393 19.339V19.3393C18.2414 21.6487 18.244 24.5457 18.2376 25.1831C18.2376 25.7175 17.9767 25.9762 17.4464 25.9851C16.3947 25.994 15.3336 25.994 14.2819 25.9851C13.742 25.9851 13.5 25.7273 13.5 25.1831V0.771776C13.5 0.24635 13.7327 0.0161972 14.2632 0.0161972C15.1707 0.0161972 16.0782 0.0121479 16.9857 0.00809863C19.1498 -0.00155743 21.3138 -0.0112135 23.4778 0.0340386C27.8989 0.126813 31.1846 3.37839 31.38 7.75397C31.4824 10.0849 31.0356 12.25 29.5092 14.0921C27.9641 15.9619 25.9072 16.8646 23.4965 16.9574C22.1692 17.0119 19.4675 16.9803 18.544 16.9695H18.5439H18.5439L18.542 16.9695L18.5373 16.9694L18.533 16.9694C18.3747 16.9675 18.2707 16.9663 18.2376 16.9663ZM18.2563 13.0876C18.7472 13.0876 19.2319 13.0866 19.7127 13.0856C20.663 13.0836 21.5983 13.0817 22.5377 13.0876C23.7385 13.0974 24.7158 12.6362 25.4604 11.7246C26.6145 10.3151 26.9123 8.69421 26.447 6.96182C25.9162 4.99035 24.4086 3.88508 22.3609 3.88508H18.2655C18.2563 6.97074 18.2563 10.002 18.2563 13.0876ZM47.5441 25.1278C47.7858 25.7175 48.1677 26.0493 48.8565 25.994C49.2846 25.9574 51.0904 25.9851 51.5558 25.994C52.4307 25.994 52.7099 25.5792 52.347 24.7871C48.6645 16.751 44.9849 8.71205 41.308 0.67008C41.1033 0.218695 40.8241 0.0527707 40.3401 0.0616913C39.8747 0.071504 39.6699 0.329311 39.4931 0.706654C38.1872 3.53693 35.8181 8.6572 33.5894 13.4741L33.5887 13.4756C31.1315 18.7861 28.8452 23.7276 28.3425 24.8245C27.9981 25.5614 28.2866 25.9851 29.0964 25.9851H31.7955C32.6054 25.9851 32.8659 25.8192 33.1731 25.0823C33.3094 24.7586 33.4463 24.4355 33.5833 24.1125L33.5836 24.1117L33.584 24.1109L33.5843 24.11L33.5844 24.1098C33.9613 23.2206 34.3379 22.3322 34.6995 21.4338C34.8298 21.1118 34.9881 20.9735 35.3696 20.9735C38.5891 20.9916 41.7997 20.983 45.0186 20.9743L45.3289 20.9735C45.6733 20.9735 45.8501 21.0564 45.9804 21.3883C46.3258 22.249 46.6889 23.1056 47.0513 23.9608C47.2163 24.35 47.3811 24.7389 47.5441 25.1278ZM36.7103 17.0582H43.989C42.7604 14.3865 41.5598 11.7709 40.3125 9.03498C39.0738 11.7799 37.9013 14.3865 36.71 17.0582H36.7103ZM66.0555 0.614774C64.4288 3.02067 60.6572 8.50955 60.3873 8.89671H60.387C60.3291 8.81647 59.646 7.82288 58.7373 6.50127C57.4537 4.6345 55.7202 2.11327 54.6632 0.58712C54.5142 0.374809 54.235 0.108081 54.0024 0.0991607C52.7272 0.0438527 51.4613 0.0527733 50.1862 0.0804273C49.6743 0.089348 49.4136 0.5782 49.6184 1.04743C49.6604 1.15442 51.9415 4.55093 54.2515 7.99054L54.2519 7.99119L54.2526 7.99219L54.2533 7.9933C55.525 9.88679 56.8052 11.7931 57.7254 13.1706C57.8747 13.3983 57.9554 13.6635 57.958 13.9351C57.9641 17.6482 57.967 21.3606 57.967 25.0725C57.967 25.755 58.1904 25.9851 58.8792 25.9851H61.7181C62.5 25.9851 62.714 25.7728 62.714 25.0083C62.7173 21.3755 62.7143 17.7397 62.705 14.101C62.694 13.7065 62.8115 13.3189 63.0401 12.9957C65.6959 9.12329 68.3454 5.24816 70.9888 1.37035C71.1936 1.07508 71.3611 0.789619 71.1749 0.430117C70.9888 0.061694 70.6351 0.061694 70.2907 0.061694C69.9885 0.061694 69.6855 0.0632409 69.3821 0.0647895C68.6299 0.06863 67.8757 0.0724806 67.1261 0.0527733C66.6418 0.0438527 66.3254 0.209777 66.0555 0.614774ZM139.5 21.8299C139.479 24.1308 137.586 25.9821 135.265 25.972C132.944 25.9619 131.068 24.0943 131.067 21.7933C131.095 19.49 132.984 17.6291 135.284 17.6389C136.405 17.6348 137.482 18.0754 138.273 18.8626C139.065 19.6497 139.507 20.7181 139.5 21.8299ZM138.988 21.8673C138.922 23.9119 137.266 25.5061 135.227 25.4695C134.24 25.4565 133.298 25.0514 132.615 24.3448C131.931 23.6382 131.561 22.6892 131.589 21.7103C131.626 19.7112 133.32 18.118 135.386 18.1546C137.387 18.1911 139.044 19.8959 138.988 21.8673ZM135.972 22.1617C136.109 22.356 136.243 22.5456 136.375 22.7331L136.376 22.7339C136.614 23.0703 136.847 23.3999 137.08 23.7371C136.661 23.903 136.428 23.7737 136.261 23.4516C136.2 23.3298 136.121 23.2194 136.043 23.1093L136.042 23.1092L136.042 23.1091C135.978 23.0193 135.915 22.9297 135.861 22.8343C135.535 22.2812 135.07 22.0975 134.399 22.2634V23.7737C134.222 23.7835 134.102 23.7924 133.934 23.8111V20.2456C134.135 20.2456 134.335 20.2431 134.533 20.2406H134.533C134.994 20.2348 135.449 20.2291 135.897 20.2554C136.437 20.283 136.735 20.6051 136.791 21.0841C136.848 21.5542 136.615 21.9128 136.112 22.1064C136.068 22.1313 136.021 22.1499 135.972 22.1617ZM134.824 21.7688C134.688 21.7672 134.55 21.7656 134.408 21.7656V20.6327C134.544 20.6327 134.677 20.6311 134.809 20.6296C135.133 20.6257 135.448 20.622 135.758 20.6416C136.094 20.6693 136.317 20.8718 136.308 21.2134C136.298 21.5266 136.112 21.738 135.786 21.7567C135.47 21.7763 135.154 21.7726 134.824 21.7688Z" fill="white"/>
<path fill-rule="evenodd" clip-rule="evenodd" d="M124.12 15.6127C124.251 15.8616 124.362 16.0837 124.474 16.296C125.964 19.0764 127.454 21.86 128.943 24.6469C129.037 24.7898 129.109 24.9455 129.157 25.109C129.269 25.5336 129.017 25.9038 128.579 25.9127C127.277 25.9314 125.973 25.9216 124.669 25.9216C124.279 25.9216 124.158 25.6264 124.028 25.3489C122.565 22.3652 121.095 19.3814 119.652 16.3888C119.475 16.0186 119.27 15.8616 118.842 15.8714C117.846 15.8991 116.859 15.8991 115.863 15.8714C115.453 15.8616 115.332 16.0007 115.332 16.4066C115.341 19.2432 115.341 22.0699 115.341 24.9056C115.341 25.7923 115.211 25.9216 114.327 25.9216H111.627C110.91 25.9216 110.715 25.737 110.715 25.026V0.868812C110.715 0.23103 110.929 0.00981309 111.571 0.00981309C114.97 0.00981309 118.367 -0.00891897 121.765 0.00981309C125.563 0.0285452 128.663 2.49493 129.334 6.12538C130.051 9.98687 128.44 13.5522 124.66 15.354C124.484 15.4281 124.316 15.511 124.12 15.6127ZM115.416 12.1116C115.621 12.1116 119.457 12.1018 121.225 12.1116C121.912 12.1153 122.581 11.8908 123.125 11.4738C124.521 10.4391 125.173 8.46243 124.688 6.71678C124.176 4.85963 122.818 3.82491 120.89 3.82491H115.416V12.1116H115.416ZM78.2014 3.82491V11.0947H86.8964C87.6319 11.0947 87.8462 11.3079 87.8462 12.0188V14.0508C87.8462 14.6886 87.6229 14.9107 86.9801 14.9107H78.2106V22.1805H88.6466C89.447 22.1805 89.6243 22.3563 89.6243 23.1501V25.0903C89.6243 25.7833 89.41 25.9956 88.7123 25.9956C84.308 25.9956 74.6823 26.0054 74.282 25.9956C73.8219 25.9876 73.5858 25.8128 73.519 25.4301C73.5087 25.3712 73.5 9.0351 73.5 1.09092C73.5 0.166803 73.6583 0.0187302 74.5706 0.0187302H88.5719C89.4569 0.0187302 89.6153 0.175723 89.6153 1.07219V2.91952C89.6153 3.64026 89.419 3.83383 88.6745 3.83383C85.3884 3.82491 78.4434 3.82491 78.2014 3.82491ZM92.2011 12.9795V0.924115C92.2011 0.166804 92.3685 0 93.123 0H107.367C108.093 0 108.279 0.185537 108.279 0.887543V2.96591C108.279 3.62153 108.093 3.81599 107.422 3.81599H97.5074C96.8285 3.81599 96.8285 3.81599 96.8285 4.48053C96.8285 6.5134 96.8375 8.54539 96.8186 10.5783C96.8186 10.9841 96.9402 11.0947 97.3498 11.0947C100.031 11.0769 102.721 11.0858 105.402 11.0858C106.38 11.0858 106.51 11.2152 106.51 12.1571V14.0972C106.51 14.6797 106.296 14.9009 105.691 14.9009C104.276 14.9107 98.6994 14.9107 97.312 14.9009C96.9681 14.9009 96.8186 14.966 96.8186 15.354C96.8375 17.4788 96.8375 19.6035 96.8186 21.7283C96.8186 22.1065 96.9582 22.1805 97.312 22.1805C100.636 22.1716 103.95 22.1716 107.274 22.1716C108.149 22.1716 108.279 22.301 108.279 23.1876V25.1277C108.279 25.7833 108.083 25.9867 107.431 25.9867H93.1877C92.3594 25.9867 92.2109 25.8386 92.2109 25.026C92.201 21.0165 92.1977 17.001 92.201 12.9795H92.2011Z" fill="white"/>
</svg>
